<svg width="16" height="16" viewBox="0 0 16 16" fill="none" xmlns="http://www.w3.org/2000/svg">
<path d="M11.5353 6.34919L13.6567 8.47053C14.0009 8.81017 14.2745 9.21455 14.4618 9.66039C14.6491 10.1062 14.7464 10.5847 14.748 11.0683C14.7496 11.5519 14.6556 12.031 14.4713 12.4781C14.287 12.9251 14.016 13.3313 13.6741 13.6733C13.3321 14.0152 12.9259 14.2862 12.4789 14.4705C12.0318 14.6548 11.5527 14.7488 11.0691 14.7472C10.5855 14.7456 10.107 14.6483 9.66119 14.461C9.21535 14.2737 8.81097 14.0001 8.47132 13.6559L7.76466 12.9492C7.66911 12.857 7.59287 12.7467 7.54041 12.6247C7.48794 12.5027 7.46029 12.3715 7.45908 12.2387C7.45786 12.106 7.4831 11.9743 7.53332 11.8514C7.58355 11.7284 7.65775 11.6167 7.7516 11.5228C7.84544 11.4289 7.95706 11.3546 8.07993 11.3042C8.2028 11.2539 8.33447 11.2285 8.46725 11.2296C8.60003 11.2307 8.73126 11.2582 8.85329 11.3106C8.97532 11.3629 9.0857 11.4391 9.17799 11.5345L9.88599 12.2419C10.1991 12.5521 10.6223 12.7257 11.063 12.7247C11.5038 12.7237 11.9262 12.5481 12.2378 12.2364C12.5495 11.9247 12.7249 11.5022 12.7258 11.0614C12.7267 10.6207 12.553 10.1975 12.2427 9.88453L10.1213 7.76319C9.89204 7.53381 9.60081 7.37631 9.28333 7.30999C8.96585 7.24368 8.63593 7.27143 8.33399 7.38986C8.22644 7.43253 8.12555 7.47608 8.03133 7.52053L7.72199 7.66519C7.30866 7.85186 6.99066 7.93186 6.58599 7.52786C6.00466 6.94653 6.15532 6.40986 6.86399 5.92119C7.56993 5.43543 8.42371 5.21227 9.27706 5.29045C10.1304 5.36864 10.9294 5.74324 11.5353 6.34919ZM7.52866 2.34253L8.23532 3.04919C8.41757 3.23771 8.51849 3.49026 8.51634 3.75246C8.51418 4.01466 8.40913 4.26553 8.22381 4.45102C8.03849 4.63652 7.78772 4.74181 7.52553 4.74421C7.26333 4.74661 7.01068 4.64593 6.82199 4.46386L6.11466 3.75719C5.96096 3.59797 5.77709 3.47094 5.57377 3.38354C5.37046 3.29613 5.15177 3.2501 4.93047 3.24811C4.70917 3.24612 4.4897 3.28823 4.28485 3.37198C4.07999 3.45572 3.89387 3.57942 3.73734 3.73586C3.58081 3.89231 3.457 4.07836 3.37314 4.28316C3.28928 4.48797 3.24705 4.70742 3.24891 4.92872C3.25077 5.15002 3.29669 5.36873 3.38398 5.57209C3.47127 5.77546 3.59819 5.9594 3.75733 6.11319L5.87866 8.23453C6.10794 8.46391 6.39918 8.62141 6.71665 8.68773C7.03413 8.75404 7.36406 8.72628 7.66599 8.60786C7.77355 8.56519 7.87444 8.52164 7.96866 8.47719L8.27799 8.33253C8.69133 8.14586 9.00999 8.06586 9.41399 8.46986C9.99533 9.05119 9.84466 9.58786 9.13599 10.0765C8.43005 10.5623 7.57627 10.7855 6.72293 10.7073C5.86958 10.6291 5.07057 10.2545 4.46466 9.64853L2.34333 7.52719C1.9991 7.18755 1.72546 6.78317 1.53816 6.33733C1.35085 5.8915 1.25359 5.41302 1.25197 4.92944C1.25035 4.44586 1.34441 3.96674 1.52872 3.51966C1.71303 3.07258 1.98395 2.66637 2.3259 2.32443C2.66784 1.98249 3.07404 1.71156 3.52112 1.52725C3.9682 1.34294 4.44733 1.24889 4.9309 1.25051C5.41448 1.25213 5.89296 1.34939 6.3388 1.53669C6.78463 1.72399 7.18901 1.9983 7.52866 2.34253Z" fill="#F59E0B"/>
</svg>
