<svg width="259" height="337" viewBox="0 0 259 337" fill="none" xmlns="http://www.w3.org/2000/svg">
<ellipse cx="0.90725" cy="271.175" rx="0.686695" ry="0.686695" transform="rotate(24.0525 0.90725 271.175)" fill="#1C1C22"/>
<ellipse cx="3.70608" cy="264.904" rx="0.686695" ry="0.686695" transform="rotate(24.0525 3.70608 264.904)" fill="#1C1C22"/>
<ellipse cx="10.6035" cy="267.982" rx="0.686695" ry="0.686695" transform="rotate(24.0525 10.6035 267.982)" fill="#1C1C22"/>
<ellipse cx="16.2481" cy="270.501" rx="0.686695" ry="0.686695" transform="rotate(24.0525 16.2481 270.501)" fill="#1C1C22"/>
<ellipse cx="13.4492" cy="276.772" rx="0.686695" ry="0.686695" transform="rotate(24.0525 13.4492 276.772)" fill="#1C1C22"/>
<ellipse cx="29.416" cy="276.379" rx="0.686695" ry="0.686695" transform="rotate(24.0525 29.416 276.379)" fill="#1C1C22"/>
<ellipse cx="32.2608" cy="285.168" rx="0.686695" ry="0.686695" transform="rotate(24.0525 32.2608 285.168)" fill="#1C1C22"/>
<ellipse cx="38.5318" cy="287.967" rx="0.686695" ry="0.686695" transform="rotate(24.0525 38.5318 287.967)" fill="#1C1C22"/>
<ellipse cx="41.6104" cy="281.07" rx="0.686695" ry="0.686695" transform="rotate(24.0525 41.6104 281.07)" fill="#1C1C22"/>
<ellipse cx="44.1294" cy="275.426" rx="0.686695" ry="0.686695" transform="rotate(24.0525 44.1294 275.426)" fill="#1C1C22"/>
<ellipse cx="37.8584" cy="272.627" rx="0.686695" ry="0.686695" transform="rotate(24.0525 37.8584 272.627)" fill="#1C1C22"/>
<ellipse cx="31.5874" cy="269.828" rx="0.686695" ry="0.686695" transform="rotate(24.0525 31.5874 269.828)" fill="#1C1C22"/>
<ellipse cx="28.7422" cy="261.039" rx="0.686695" ry="0.686695" transform="rotate(24.0525 28.7422 261.039)" fill="#1C1C22"/>
<ellipse cx="15.854" cy="254.534" rx="0.686695" ry="0.686695" transform="rotate(24.0525 15.854 254.534)" fill="#1C1C22"/>
<ellipse cx="24.9239" cy="251.062" rx="0.686695" ry="0.686695" transform="rotate(24.0525 24.9239 251.062)" fill="#1C1C22"/>
<ellipse cx="27.4429" cy="245.419" rx="0.686695" ry="0.686695" transform="rotate(24.0525 27.4429 245.419)" fill="#1C1C22"/>
<ellipse cx="33.9927" cy="247.59" rx="0.686695" ry="0.686695" transform="rotate(24.0525 33.9927 247.59)" fill="#1C1C22"/>
<ellipse cx="21.4517" cy="241.993" rx="0.686695" ry="0.686695" transform="rotate(24.0525 21.4517 241.993)" fill="#1C1C22"/>
<ellipse cx="17.6997" cy="233.55" rx="0.686695" ry="0.686695" transform="rotate(24.0525 17.6997 233.55)" fill="#1C1C22"/>
<ellipse cx="26.7696" cy="230.078" rx="0.686695" ry="0.686695" transform="rotate(24.0525 26.7696 230.078)" fill="#1C1C22"/>
<ellipse cx="35.8394" cy="226.607" rx="0.686695" ry="0.686695" transform="rotate(24.0525 35.8394 226.607)" fill="#1C1C22"/>
<ellipse cx="48.3804" cy="232.204" rx="0.686695" ry="0.686695" transform="rotate(24.0525 48.3804 232.204)" fill="#1C1C22"/>
<ellipse cx="55.2783" cy="235.283" rx="0.686695" ry="0.686695" transform="rotate(24.0525 55.2783 235.283)" fill="#1C1C22"/>
<ellipse cx="58.357" cy="228.385" rx="0.686695" ry="0.686695" transform="rotate(24.0525 58.357 228.385)" fill="#1C1C22"/>
<ellipse cx="53.9781" cy="219.663" rx="0.686695" ry="0.686695" transform="rotate(24.0525 53.9781 219.663)" fill="#1C1C22"/>
<ellipse cx="47.7071" cy="216.864" rx="0.686695" ry="0.686695" transform="rotate(24.0525 47.7071 216.864)" fill="#1C1C22"/>
<ellipse cx="34.5391" cy="210.987" rx="0.686695" ry="0.686695" transform="rotate(24.0525 34.5391 210.987)" fill="#1C1C22"/>
<ellipse cx="44.5156" cy="207.167" rx="0.686695" ry="0.686695" transform="rotate(24.0525 44.5156 207.167)" fill="#1C1C22"/>
<ellipse cx="50.5059" cy="210.593" rx="0.686695" ry="0.686695" transform="rotate(24.0525 50.5059 210.593)" fill="#1C1C22"/>
<ellipse cx="56.1494" cy="213.112" rx="0.686695" ry="0.686695" transform="rotate(24.0525 56.1494 213.112)" fill="#1C1C22"/>
<ellipse cx="79.3408" cy="230.231" rx="0.686695" ry="0.686695" transform="rotate(24.0525 79.3408 230.231)" fill="#1C1C22"/>
<ellipse cx="86.2383" cy="233.309" rx="0.686695" ry="0.686695" transform="rotate(24.0525 86.2383 233.309)" fill="#1C1C22"/>
<ellipse cx="82.1397" cy="223.96" rx="0.686695" ry="0.686695" transform="rotate(24.0525 82.1397 223.96)" fill="#1C1C22"/>
<ellipse cx="75.8687" cy="221.161" rx="0.686695" ry="0.686695" transform="rotate(24.0525 75.8687 221.161)" fill="#1C1C22"/>
<ellipse cx="66.7534" cy="209.573" rx="0.686695" ry="0.686695" transform="rotate(24.0525 66.7534 209.573)" fill="#1C1C22"/>
<ellipse cx="53.5845" cy="203.695" rx="0.686695" ry="0.686695" transform="rotate(24.0525 53.5845 203.695)" fill="#1C1C22"/>
<ellipse cx="69.5518" cy="203.302" rx="0.686695" ry="0.686695" transform="rotate(24.0525 69.5518 203.302)" fill="#1C1C22"/>
<ellipse cx="81.1861" cy="209.247" rx="0.686695" ry="0.686695" transform="rotate(24.0525 81.1861 209.247)" fill="#1C1C22"/>
<ellipse cx="84.2647" cy="202.349" rx="0.686695" ry="0.686695" transform="rotate(24.0525 84.2647 202.349)" fill="#1C1C22"/>
<ellipse cx="77.9947" cy="199.551" rx="0.686695" ry="0.686695" transform="rotate(24.0525 77.9947 199.551)" fill="#1C1C22"/>
<ellipse cx="65.1734" cy="194.58" rx="0.686695" ry="0.686695" transform="rotate(24.0525 65.1734 194.58)" fill="#1C1C22"/>
<ellipse cx="67.9717" cy="188.309" rx="0.686695" ry="0.686695" transform="rotate(24.0525 67.9717 188.309)" fill="#1C1C22"/>
<ellipse cx="64.7798" cy="178.612" rx="0.686695" ry="0.686695" transform="rotate(24.0525 64.7798 178.612)" fill="#1C1C22"/>
<ellipse cx="74.1968" cy="176.048" rx="0.686695" ry="0.686695" transform="rotate(24.0525 74.1968 176.048)" fill="#1C1C22"/>
<ellipse cx="80.4673" cy="178.846" rx="0.686695" ry="0.686695" transform="rotate(24.0525 80.4673 178.846)" fill="#1C1C22"/>
<ellipse cx="82.919" cy="171.669" rx="0.686695" ry="0.686695" transform="rotate(24.0525 82.919 171.669)" fill="#1C1C22"/>
<ellipse cx="85.7178" cy="165.398" rx="0.686695" ry="0.686695" transform="rotate(24.0525 85.7178 165.398)" fill="#1C1C22"/>
<ellipse cx="76.648" cy="168.87" rx="0.686695" ry="0.686695" transform="rotate(24.0525 76.648 168.87)" fill="#1C1C22"/>
<ellipse cx="82.2456" cy="156.328" rx="0.686695" ry="0.686695" transform="rotate(24.0525 82.2456 156.328)" fill="#1C1C22"/>
<ellipse cx="84.7647" cy="150.685" rx="0.686695" ry="0.686695" transform="rotate(24.0525 84.7647 150.685)" fill="#1C1C22"/>
<ellipse cx="94.4614" cy="147.493" rx="0.686695" ry="0.686695" transform="rotate(24.0525 94.4614 147.493)" fill="#1C1C22"/>
<ellipse cx="103.856" cy="158.454" rx="0.686695" ry="0.686695" transform="rotate(24.0525 103.856 158.454)" fill="#1C1C22"/>
<ellipse cx="109.801" cy="146.82" rx="0.686695" ry="0.686695" transform="rotate(24.0525 109.801 146.82)" fill="#1C1C22"/>
<ellipse cx="112.6" cy="140.549" rx="0.686695" ry="0.686695" transform="rotate(24.0525 112.6 140.549)" fill="#1C1C22"/>
<ellipse cx="115.052" cy="133.371" rx="0.686695" ry="0.686695" transform="rotate(24.0525 115.052 133.371)" fill="#1C1C22"/>
<ellipse cx="108.501" cy="131.2" rx="0.686695" ry="0.686695" transform="rotate(24.0525 108.501 131.2)" fill="#1C1C22"/>
<ellipse cx="111.927" cy="125.209" rx="0.686695" ry="0.686695" transform="rotate(24.0525 111.927 125.209)" fill="#1C1C22"/>
<ellipse cx="121.276" cy="121.11" rx="0.686695" ry="0.686695" transform="rotate(24.0525 121.276 121.11)" fill="#1C1C22"/>
<ellipse cx="124.075" cy="114.839" rx="0.686695" ry="0.686695" transform="rotate(24.0525 124.075 114.839)" fill="#1C1C22"/>
<ellipse cx="129.092" cy="117.078" rx="0.686695" ry="0.686695" transform="rotate(24.0525 129.092 117.078)" fill="#1C1C22"/>
<ellipse cx="141.307" cy="108.242" rx="0.686695" ry="0.686695" transform="rotate(24.0525 141.307 108.242)" fill="#1C1C22"/>
<ellipse cx="122.775" cy="99.2192" rx="0.686695" ry="0.686695" transform="rotate(24.0525 122.775 99.2192)" fill="#1C1C22"/>
<ellipse cx="126.201" cy="93.2282" rx="0.686695" ry="0.686695" transform="rotate(24.0525 126.201 93.2282)" fill="#1C1C22"/>
<ellipse cx="135.27" cy="89.7561" rx="0.686695" ry="0.686695" transform="rotate(24.0525 135.27 89.7561)" fill="#1C1C22"/>
<ellipse cx="140.914" cy="92.2751" rx="0.686695" ry="0.686695" transform="rotate(24.0525 140.914 92.2751)" fill="#1C1C22"/>
<ellipse cx="156.456" cy="96.2041" rx="0.686695" ry="0.686695" transform="rotate(24.0525 156.456 96.2041)" fill="#1C1C22"/>
<ellipse cx="169.019" cy="88.2754" rx="0.686695" ry="0.686695" transform="rotate(24.0525 169.019 88.2754)" fill="#1C1C22"/>
<ellipse cx="166.635" cy="96.987" rx="0.686695" ry="0.686695" transform="rotate(24.0525 166.635 96.987)" fill="#1C1C22"/>
<ellipse cx="193.833" cy="93.3347" rx="0.686695" ry="0.686695" transform="rotate(24.0525 193.833 93.3347)" fill="#1C1C22"/>
<ellipse cx="200.103" cy="96.133" rx="0.686695" ry="0.686695" transform="rotate(24.0525 200.103 96.133)" fill="#1C1C22"/>
<ellipse cx="206.094" cy="99.5591" rx="0.686695" ry="0.686695" transform="rotate(24.0525 206.094 99.5591)" fill="#1C1C22"/>
<ellipse cx="218.636" cy="105.157" rx="0.686695" ry="0.686695" transform="rotate(24.0525 218.636 105.157)" fill="#1C1C22"/>
<ellipse cx="215.097" cy="94.5532" rx="0.686695" ry="0.686695" transform="rotate(24.0525 215.097 94.5532)" fill="#1C1C22"/>
<ellipse cx="217.962" cy="89.8164" rx="0.686695" ry="0.686695" transform="rotate(24.0525 217.962 89.8164)" fill="#1C1C22"/>
<ellipse cx="211.064" cy="86.7378" rx="0.686695" ry="0.686695" transform="rotate(24.0525 211.064 86.7378)" fill="#1C1C22"/>
<ellipse cx="198.803" cy="80.5129" rx="0.686695" ry="0.686695" transform="rotate(24.0525 198.803 80.5129)" fill="#1C1C22"/>
<ellipse cx="208.219" cy="77.948" rx="0.686695" ry="0.686695" transform="rotate(24.0525 208.219 77.948)" fill="#1C1C22"/>
<ellipse cx="216.942" cy="73.5693" rx="0.686695" ry="0.686695" transform="rotate(24.0525 216.942 73.5693)" fill="#1C1C22"/>
<ellipse cx="226.639" cy="70.3772" rx="0.686695" ry="0.686695" transform="rotate(24.0525 226.639 70.3772)" fill="#1C1C22"/>
<ellipse cx="235.754" cy="81.9655" rx="0.686695" ry="0.686695" transform="rotate(24.0525 235.754 81.9655)" fill="#1C1C22"/>
<ellipse cx="239.226" cy="91.0351" rx="0.686695" ry="0.686695" transform="rotate(24.0525 239.226 91.0351)" fill="#1C1C22"/>
<ellipse cx="246.124" cy="94.1137" rx="0.686695" ry="0.686695" transform="rotate(24.0525 246.124 94.1137)" fill="#1C1C22"/>
<ellipse cx="248.923" cy="87.8432" rx="0.686695" ry="0.686695" transform="rotate(24.0525 248.923 87.8432)" fill="#1C1C22"/>
<ellipse cx="255.194" cy="90.6421" rx="0.686695" ry="0.686695" transform="rotate(24.0525 255.194 90.6421)" fill="#1C1C22"/>
<ellipse cx="245.451" cy="78.7737" rx="0.686695" ry="0.686695" transform="rotate(24.0525 245.451 78.7737)" fill="#1C1C22"/>
<ellipse cx="247.343" cy="72.8501" rx="0.686695" ry="0.686695" transform="rotate(24.0525 247.343 72.8501)" fill="#1C1C22"/>
<ellipse cx="244.15" cy="63.1535" rx="0.686695" ry="0.686695" transform="rotate(24.0525 244.15 63.1535)" fill="#1C1C22"/>
<ellipse cx="246.949" cy="56.8828" rx="0.686695" ry="0.686695" transform="rotate(24.0525 246.949 56.8828)" fill="#1C1C22"/>
<ellipse cx="240.678" cy="54.084" rx="0.686695" ry="0.686695" transform="rotate(24.0525 240.678 54.084)" fill="#1C1C22"/>
<ellipse cx="237.879" cy="60.3545" rx="0.686695" ry="0.686695" transform="rotate(24.0525 237.879 60.3545)" fill="#1C1C22"/>
<ellipse cx="234.408" cy="51.2854" rx="0.686695" ry="0.686695" transform="rotate(24.0525 234.408 51.2854)" fill="#1C1C22"/>
<ellipse cx="225.338" cy="54.757" rx="0.686695" ry="0.686695" transform="rotate(24.0525 225.338 54.757)" fill="#1C1C22"/>
<ellipse cx="238.553" cy="75.695" rx="0.686695" ry="0.686695" transform="rotate(24.0525 238.553 75.695)" fill="#1C1C22"/>
<ellipse cx="242.025" cy="84.7644" rx="0.686695" ry="0.686695" transform="rotate(24.0525 242.025 84.7644)" fill="#1C1C22"/>
<ellipse cx="224.233" cy="92.6154" rx="0.686695" ry="0.686695" transform="rotate(24.0525 224.233 92.6154)" fill="#1C1C22"/>
<ellipse cx="179.711" cy="72.7439" rx="0.686695" ry="0.686695" transform="rotate(24.0525 179.711 72.7439)" fill="#1C1C22"/>
<ellipse cx="189.734" cy="83.9853" rx="0.686695" ry="0.686695" transform="rotate(24.0525 189.734 83.9853)" fill="#1C1C22"/>
<ellipse cx="148.045" cy="79.6662" rx="0.686695" ry="0.686695" transform="rotate(24.0525 148.045 79.6662)" fill="#1C1C22"/>
<ellipse cx="156.98" cy="73.1264" rx="0.686695" ry="0.686695" transform="rotate(24.0525 156.98 73.1264)" fill="#1C1C22"/>
<ellipse cx="177.819" cy="78.6672" rx="0.686695" ry="0.686695" transform="rotate(24.0525 177.819 78.6672)" fill="#1C1C22"/>
<ellipse cx="159.121" cy="86.8652" rx="0.686695" ry="0.686695" transform="rotate(24.0525 159.121 86.8652)" fill="#1C1C22"/>
<ellipse cx="133.538" cy="127.334" rx="0.686695" ry="0.686695" transform="rotate(24.0525 133.538 127.334)" fill="#1C1C22"/>
<ellipse cx="116.898" cy="112.388" rx="0.686695" ry="0.686695" transform="rotate(24.0525 116.898 112.388)" fill="#1C1C22"/>
<ellipse cx="105.983" cy="136.843" rx="0.686695" ry="0.686695" transform="rotate(24.0525 105.983 136.843)" fill="#1C1C22"/>
<ellipse cx="96.98" cy="141.849" rx="0.686695" ry="0.686695" transform="rotate(24.0525 96.98 141.849)" fill="#1C1C22"/>
<ellipse cx="93.4409" cy="131.246" rx="0.686695" ry="0.686695" transform="rotate(24.0525 93.4409 131.246)" fill="#1C1C22"/>
<ellipse cx="87.7969" cy="128.727" rx="0.686695" ry="0.686695" transform="rotate(24.0525 87.7969 128.727)" fill="#1C1C22"/>
<ellipse cx="96.2398" cy="124.975" rx="0.686695" ry="0.686695" transform="rotate(24.0525 96.2398 124.975)" fill="#1C1C22"/>
<ellipse cx="92.7676" cy="115.905" rx="0.686695" ry="0.686695" transform="rotate(24.0525 92.7676 115.905)" fill="#1C1C22"/>
<ellipse cx="81.5269" cy="125.928" rx="0.686695" ry="0.686695" transform="rotate(24.0525 81.5269 125.928)" fill="#1C1C22"/>
<ellipse cx="83.3125" cy="187.636" rx="0.686695" ry="0.686695" transform="rotate(24.0525 83.3125 187.636)" fill="#1C1C22"/>
<ellipse cx="86.3911" cy="180.738" rx="0.686695" ry="0.686695" transform="rotate(24.0525 86.3911 180.738)" fill="#1C1C22"/>
<ellipse cx="95.1802" cy="177.893" rx="0.686695" ry="0.686695" transform="rotate(24.0525 95.1802 177.893)" fill="#1C1C22"/>
<ellipse cx="101.451" cy="180.692" rx="0.686695" ry="0.686695" transform="rotate(24.0525 101.451 180.692)" fill="#1C1C22"/>
<ellipse cx="102.124" cy="196.032" rx="0.686695" ry="0.686695" transform="rotate(24.0525 102.124 196.032)" fill="#1C1C22"/>
<ellipse cx="105.597" cy="205.102" rx="0.686695" ry="0.686695" transform="rotate(24.0525 105.597 205.102)" fill="#1C1C22"/>
<ellipse cx="109.695" cy="214.451" rx="0.686695" ry="0.686695" transform="rotate(24.0525 109.695 214.451)" fill="#1C1C22"/>
<ellipse cx="115.965" cy="217.25" rx="0.686695" ry="0.686695" transform="rotate(24.0525 115.965 217.25)" fill="#1C1C22"/>
<ellipse cx="122.517" cy="219.422" rx="0.686695" ry="0.686695" transform="rotate(24.0525 122.517 219.422)" fill="#1C1C22"/>
<ellipse cx="125.315" cy="213.151" rx="0.686695" ry="0.686695" transform="rotate(24.0525 125.315 213.151)" fill="#1C1C22"/>
<ellipse cx="121.843" cy="204.081" rx="0.686695" ry="0.686695" transform="rotate(24.0525 121.843 204.081)" fill="#1C1C22"/>
<ellipse cx="108.396" cy="198.831" rx="0.686695" ry="0.686695" transform="rotate(24.0525 108.396 198.831)" fill="#1C1C22"/>
<ellipse cx="111.821" cy="192.84" rx="0.686695" ry="0.686695" transform="rotate(24.0525 111.821 192.84)" fill="#1C1C22"/>
<ellipse cx="121.17" cy="188.741" rx="0.686695" ry="0.686695" transform="rotate(24.0525 121.17 188.741)" fill="#1C1C22"/>
<ellipse cx="130.286" cy="200.33" rx="0.686695" ry="0.686695" transform="rotate(24.0525 130.286 200.33)" fill="#1C1C22"/>
<ellipse cx="137.184" cy="203.408" rx="0.686695" ry="0.686695" transform="rotate(24.0525 137.184 203.408)" fill="#1C1C22"/>
<ellipse cx="139.076" cy="197.485" rx="0.686695" ry="0.686695" transform="rotate(24.0525 139.076 197.485)" fill="#1C1C22"/>
<ellipse cx="141.875" cy="191.214" rx="0.686695" ry="0.686695" transform="rotate(24.0525 141.875 191.214)" fill="#1C1C22"/>
<ellipse cx="139.029" cy="182.425" rx="0.686695" ry="0.686695" transform="rotate(24.0525 139.029 182.425)" fill="#1C1C22"/>
<ellipse cx="132.131" cy="179.346" rx="0.686695" ry="0.686695" transform="rotate(24.0525 132.131 179.346)" fill="#1C1C22"/>
<ellipse cx="119.87" cy="173.121" rx="0.686695" ry="0.686695" transform="rotate(24.0525 119.87 173.121)" fill="#1C1C22"/>
<ellipse cx="123.016" cy="167.758" rx="0.686695" ry="0.686695" transform="rotate(24.0525 123.016 167.758)" fill="#1C1C22"/>
<ellipse cx="125.815" cy="161.487" rx="0.686695" ry="0.686695" transform="rotate(24.0525 125.815 161.487)" fill="#1C1C22"/>
<ellipse cx="131.458" cy="164.006" rx="0.686695" ry="0.686695" transform="rotate(24.0525 131.458 164.006)" fill="#1C1C22"/>
<ellipse cx="128.659" cy="170.276" rx="0.686695" ry="0.686695" transform="rotate(24.0525 128.659 170.276)" fill="#1C1C22"/>
<ellipse cx="134.93" cy="173.075" rx="0.686695" ry="0.686695" transform="rotate(24.0525 134.93 173.075)" fill="#1C1C22"/>
<ellipse cx="141.201" cy="175.874" rx="0.686695" ry="0.686695" transform="rotate(24.0525 141.201 175.874)" fill="#1C1C22"/>
<ellipse cx="150.551" cy="171.775" rx="0.686695" ry="0.686695" transform="rotate(24.0525 150.551 171.775)" fill="#1C1C22"/>
<ellipse cx="160.92" cy="183.923" rx="0.686695" ry="0.686695" transform="rotate(24.0525 160.92 183.923)" fill="#1C1C22"/>
<ellipse cx="169.71" cy="181.078" rx="0.686695" ry="0.686695" transform="rotate(24.0525 169.71 181.078)" fill="#1C1C22"/>
<ellipse cx="166.237" cy="172.009" rx="0.686695" ry="0.686695" transform="rotate(24.0525 166.237 172.009)" fill="#1C1C22"/>
<ellipse cx="153.976" cy="165.784" rx="0.686695" ry="0.686695" transform="rotate(24.0525 153.976 165.784)" fill="#1C1C22"/>
<ellipse cx="162.139" cy="162.659" rx="0.686695" ry="0.686695" transform="rotate(24.0525 162.139 162.659)" fill="#1C1C22"/>
<ellipse cx="168.41" cy="165.458" rx="0.686695" ry="0.686695" transform="rotate(24.0525 168.41 165.458)" fill="#1C1C22"/>
<ellipse cx="175.587" cy="167.91" rx="0.686695" ry="0.686695" transform="rotate(24.0525 175.587 167.91)" fill="#1C1C22"/>
<ellipse cx="184.702" cy="179.498" rx="0.686695" ry="0.686695" transform="rotate(24.0525 184.702 179.498)" fill="#1C1C22"/>
<ellipse cx="182.485" cy="170.988" rx="0.686695" ry="0.686695" transform="rotate(24.0525 182.485 170.988)" fill="#1C1C22"/>
<ellipse cx="184.657" cy="164.438" rx="0.686695" ry="0.686695" transform="rotate(24.0525 184.657 164.438)" fill="#1C1C22"/>
<ellipse cx="171.835" cy="159.467" rx="0.686695" ry="0.686695" transform="rotate(24.0525 171.835 159.467)" fill="#1C1C22"/>
<ellipse cx="165.217" cy="155.761" rx="0.686695" ry="0.686695" transform="rotate(24.0525 165.217 155.761)" fill="#1C1C22"/>
<ellipse cx="149.877" cy="156.435" rx="0.686695" ry="0.686695" transform="rotate(24.0525 149.877 156.435)" fill="#1C1C22"/>
<ellipse cx="137.335" cy="150.837" rx="0.686695" ry="0.686695" transform="rotate(24.0525 137.335 150.837)" fill="#1C1C22"/>
<ellipse cx="143.327" cy="154.263" rx="0.686695" ry="0.686695" transform="rotate(24.0525 143.327 154.263)" fill="#1C1C22"/>
<ellipse cx="153.303" cy="150.444" rx="0.686695" ry="0.686695" transform="rotate(24.0525 153.303 150.444)" fill="#1C1C22"/>
<ellipse cx="167.736" cy="150.118" rx="0.686695" ry="0.686695" transform="rotate(24.0525 167.736 150.118)" fill="#1C1C22"/>
<ellipse cx="180.905" cy="155.996" rx="0.686695" ry="0.686695" transform="rotate(24.0525 180.905 155.996)" fill="#1C1C22"/>
<ellipse cx="199.717" cy="164.392" rx="0.686695" ry="0.686695" transform="rotate(24.0525 199.717 164.392)" fill="#1C1C22"/>
<ellipse cx="197.198" cy="170.035" rx="0.686695" ry="0.686695" transform="rotate(24.0525 197.198 170.035)" fill="#1C1C22"/>
<ellipse cx="203.469" cy="172.834" rx="0.686695" ry="0.686695" transform="rotate(24.0525 203.469 172.834)" fill="#1C1C22"/>
<ellipse cx="149.204" cy="141.094" rx="0.686695" ry="0.686695" transform="rotate(24.0525 149.204 141.094)" fill="#1C1C22"/>
<ellipse cx="138.636" cy="166.457" rx="0.686695" ry="0.686695" transform="rotate(24.0525 138.636 166.457)" fill="#1C1C22"/>
<ellipse cx="152.244" cy="203.362" rx="0.686695" ry="0.686695" transform="rotate(24.0525 152.244 203.362)" fill="#1C1C22"/>
<ellipse cx="132.805" cy="194.686" rx="0.686695" ry="0.686695" transform="rotate(24.0525 132.805 194.686)" fill="#1C1C22"/>
<ellipse cx="58.9024" cy="191.781" rx="0.686695" ry="0.686695" transform="rotate(24.0525 58.9024 191.781)" fill="#1C1C22"/>
<ellipse cx="52.6323" cy="188.982" rx="0.686695" ry="0.686695" transform="rotate(24.0525 52.6323 188.982)" fill="#1C1C22"/>
<ellipse cx="48.813" cy="179.006" rx="0.686695" ry="0.686695" transform="rotate(24.0525 48.813 179.006)" fill="#1C1C22"/>
<ellipse cx="51.9585" cy="173.642" rx="0.686695" ry="0.686695" transform="rotate(24.0525 51.9585 173.642)" fill="#1C1C22"/>
<ellipse cx="45.9678" cy="170.216" rx="0.686695" ry="0.686695" transform="rotate(24.0525 45.9678 170.216)" fill="#1C1C22"/>
<ellipse cx="81.1406" cy="194.187" rx="0.686695" ry="0.686695" transform="rotate(24.0525 81.1406 194.187)" fill="#1C1C22"/>
<ellipse cx="87.4107" cy="196.985" rx="0.686695" ry="0.686695" transform="rotate(24.0525 87.4107 196.985)" fill="#1C1C22"/>
<ellipse cx="90.8828" cy="206.055" rx="0.686695" ry="0.686695" transform="rotate(24.0525 90.8828 206.055)" fill="#1C1C22"/>
<ellipse cx="94.0078" cy="214.217" rx="0.686695" ry="0.686695" transform="rotate(24.0525 94.0078 214.217)" fill="#1C1C22"/>
<ellipse cx="47.3145" cy="200.897" rx="0.686695" ry="0.686695" transform="rotate(24.0525 47.3145 200.897)" fill="#1C1C22"/>
<ellipse cx="52.4795" cy="241.553" rx="0.686695" ry="0.686695" transform="rotate(24.0525 52.4795 241.553)" fill="#1C1C22"/>
<ellipse cx="49.9605" cy="247.197" rx="0.686695" ry="0.686695" transform="rotate(24.0525 49.9605 247.197)" fill="#1C1C22"/>
<ellipse cx="56.2315" cy="249.996" rx="0.686695" ry="0.686695" transform="rotate(24.0525 56.2315 249.996)" fill="#1C1C22"/>
<ellipse cx="58.1236" cy="244.072" rx="0.686695" ry="0.686695" transform="rotate(24.0525 58.1236 244.072)" fill="#1C1C22"/>
<ellipse cx="65.3003" cy="246.524" rx="0.686695" ry="0.686695" transform="rotate(24.0525 65.3003 246.524)" fill="#1C1C22"/>
<ellipse cx="70.6646" cy="249.67" rx="0.686695" ry="0.686695" transform="rotate(24.0525 70.6646 249.67)" fill="#1C1C22"/>
<ellipse cx="77.562" cy="252.749" rx="0.686695" ry="0.686695" transform="rotate(24.0525 77.562 252.749)" fill="#1C1C22"/>
<ellipse cx="89.7559" cy="257.439" rx="0.686695" ry="0.686695" transform="rotate(24.0525 89.7559 257.439)" fill="#1C1C22"/>
<ellipse cx="96.374" cy="261.145" rx="0.686695" ry="0.686695" transform="rotate(24.0525 96.374 261.145)" fill="#1C1C22"/>
<ellipse cx="92.9483" cy="267.136" rx="0.686695" ry="0.686695" transform="rotate(24.0525 92.9483 267.136)" fill="#1C1C22"/>
<ellipse cx="99.2193" cy="269.935" rx="0.686695" ry="0.686695" transform="rotate(24.0525 99.2193 269.935)" fill="#1C1C22"/>
<ellipse cx="102.925" cy="263.317" rx="0.686695" ry="0.686695" transform="rotate(24.0525 102.925 263.317)" fill="#1C1C22"/>
<ellipse cx="99.1729" cy="254.874" rx="0.686695" ry="0.686695" transform="rotate(24.0525 99.1729 254.874)" fill="#1C1C22"/>
<ellipse cx="92.2749" cy="251.795" rx="0.686695" ry="0.686695" transform="rotate(24.0525 92.2749 251.795)" fill="#1C1C22"/>
<ellipse cx="46.2085" cy="238.755" rx="0.686695" ry="0.686695" transform="rotate(24.0525 46.2085 238.755)" fill="#1C1C22"/>
<ellipse cx="9.30373" cy="252.363" rx="0.686695" ry="0.686695" transform="rotate(24.0525 9.30373 252.363)" fill="#1C1C22"/>
</svg>
