<svg width="189" height="336" viewBox="0 0 189 336" fill="none" xmlns="http://www.w3.org/2000/svg">
<ellipse cx="56.9019" cy="334.668" rx="0.686695" ry="0.686695" transform="rotate(-34.5729 56.9019 334.668)" fill="#1C1C22"/>
<ellipse cx="53.0054" cy="329.014" rx="0.686695" ry="0.686695" transform="rotate(-34.5729 53.0054 329.014)" fill="#1C1C22"/>
<ellipse cx="59.2251" cy="324.728" rx="0.686695" ry="0.686695" transform="rotate(-34.5729 59.2251 324.728)" fill="#1C1C22"/>
<ellipse cx="64.314" cy="321.22" rx="0.686695" ry="0.686695" transform="rotate(-34.5729 64.314 321.22)" fill="#1C1C22"/>
<ellipse cx="68.211" cy="326.874" rx="0.686695" ry="0.686695" transform="rotate(-34.5729 68.211 326.874)" fill="#1C1C22"/>
<ellipse cx="76.188" cy="313.037" rx="0.686695" ry="0.686695" transform="rotate(-34.5729 76.188 313.037)" fill="#1C1C22"/>
<ellipse cx="85.1734" cy="315.185" rx="0.686695" ry="0.686695" transform="rotate(-34.5729 85.1734 315.185)" fill="#1C1C22"/>
<ellipse cx="90.8281" cy="311.288" rx="0.686695" ry="0.686695" transform="rotate(-34.5729 90.8281 311.288)" fill="#1C1C22"/>
<ellipse cx="86.5415" cy="305.068" rx="0.686695" ry="0.686695" transform="rotate(-34.5729 86.5415 305.068)" fill="#1C1C22"/>
<ellipse cx="83.0347" cy="299.979" rx="0.686695" ry="0.686695" transform="rotate(-34.5729 83.0347 299.979)" fill="#1C1C22"/>
<ellipse cx="77.3799" cy="303.876" rx="0.686695" ry="0.686695" transform="rotate(-34.5729 77.3799 303.876)" fill="#1C1C22"/>
<ellipse cx="71.7256" cy="307.773" rx="0.686695" ry="0.686695" transform="rotate(-34.5729 71.7256 307.773)" fill="#1C1C22"/>
<ellipse cx="62.7398" cy="305.626" rx="0.686695" ry="0.686695" transform="rotate(-34.5729 62.7398 305.626)" fill="#1C1C22"/>
<ellipse cx="50.4766" cy="313.243" rx="0.686695" ry="0.686695" transform="rotate(-34.5729 50.4766 313.243)" fill="#1C1C22"/>
<ellipse cx="52.2344" cy="303.692" rx="0.686695" ry="0.686695" transform="rotate(-34.5729 52.2344 303.692)" fill="#1C1C22"/>
<ellipse cx="48.7276" cy="298.603" rx="0.686695" ry="0.686695" transform="rotate(-34.5729 48.7276 298.603)" fill="#1C1C22"/>
<ellipse cx="53.9917" cy="294.141" rx="0.686695" ry="0.686695" transform="rotate(-34.5729 53.9917 294.141)" fill="#1C1C22"/>
<ellipse cx="42.6831" cy="301.935" rx="0.686695" ry="0.686695" transform="rotate(-34.5729 42.6831 301.935)" fill="#1C1C22"/>
<ellipse cx="33.522" cy="300.742" rx="0.686695" ry="0.686695" transform="rotate(-34.5729 33.522 300.742)" fill="#1C1C22"/>
<ellipse cx="35.2793" cy="291.191" rx="0.686695" ry="0.686695" transform="rotate(-34.5729 35.2793 291.191)" fill="#1C1C22"/>
<ellipse cx="37.0376" cy="281.64" rx="0.686695" ry="0.686695" transform="rotate(-34.5729 37.0376 281.64)" fill="#1C1C22"/>
<ellipse cx="48.3457" cy="273.847" rx="0.686695" ry="0.686695" transform="rotate(-34.5729 48.3457 273.847)" fill="#1C1C22"/>
<ellipse cx="54.5654" cy="269.561" rx="0.686695" ry="0.686695" transform="rotate(-34.5729 54.5654 269.561)" fill="#1C1C22"/>
<ellipse cx="50.2788" cy="263.341" rx="0.686695" ry="0.686695" transform="rotate(-34.5729 50.2788 263.341)" fill="#1C1C22"/>
<ellipse cx="40.5523" cy="262.539" rx="0.686695" ry="0.686695" transform="rotate(-34.5729 40.5523 262.539)" fill="#1C1C22"/>
<ellipse cx="34.898" cy="266.436" rx="0.686695" ry="0.686695" transform="rotate(-34.5729 34.898 266.436)" fill="#1C1C22"/>
<ellipse cx="23.0244" cy="274.618" rx="0.686695" ry="0.686695" transform="rotate(-34.5729 23.0244 274.618)" fill="#1C1C22"/>
<ellipse cx="24.9575" cy="264.112" rx="0.686695" ry="0.686695" transform="rotate(-34.5729 24.9575 264.112)" fill="#1C1C22"/>
<ellipse cx="31.001" cy="260.781" rx="0.686695" ry="0.686695" transform="rotate(-34.5729 31.001 260.781)" fill="#1C1C22"/>
<ellipse cx="36.0904" cy="257.274" rx="0.686695" ry="0.686695" transform="rotate(-34.5729 36.0904 257.274)" fill="#1C1C22"/>
<ellipse cx="62.7798" cy="246.386" rx="0.686695" ry="0.686695" transform="rotate(-34.5729 62.7798 246.386)" fill="#1C1C22"/>
<ellipse cx="68.9995" cy="242.1" rx="0.686695" ry="0.686695" transform="rotate(-34.5729 68.9995 242.1)" fill="#1C1C22"/>
<ellipse cx="58.8833" cy="240.732" rx="0.686695" ry="0.686695" transform="rotate(-34.5729 58.8833 240.732)" fill="#1C1C22"/>
<ellipse cx="53.2285" cy="244.629" rx="0.686695" ry="0.686695" transform="rotate(-34.5729 53.2285 244.629)" fill="#1C1C22"/>
<ellipse cx="38.5889" cy="246.378" rx="0.686695" ry="0.686695" transform="rotate(-34.5729 38.5889 246.378)" fill="#1C1C22"/>
<ellipse cx="26.7149" cy="254.561" rx="0.686695" ry="0.686695" transform="rotate(-34.5729 26.7149 254.561)" fill="#1C1C22"/>
<ellipse cx="34.6924" cy="240.724" rx="0.686695" ry="0.686695" transform="rotate(-34.5729 34.6924 240.724)" fill="#1C1C22"/>
<ellipse cx="45.8247" cy="233.886" rx="0.686695" ry="0.686695" transform="rotate(-34.5729 45.8247 233.886)" fill="#1C1C22"/>
<ellipse cx="41.5386" cy="227.666" rx="0.686695" ry="0.686695" transform="rotate(-34.5729 41.5386 227.666)" fill="#1C1C22"/>
<ellipse cx="35.8848" cy="231.562" rx="0.686695" ry="0.686695" transform="rotate(-34.5729 35.8848 231.562)" fill="#1C1C22"/>
<ellipse cx="24.9658" cy="239.921" rx="0.686695" ry="0.686695" transform="rotate(-34.5729 24.9658 239.921)" fill="#1C1C22"/>
<ellipse cx="21.0689" cy="234.267" rx="0.686695" ry="0.686695" transform="rotate(-34.5729 21.0689 234.267)" fill="#1C1C22"/>
<ellipse cx="11.1279" cy="231.944" rx="0.686695" ry="0.686695" transform="rotate(-34.5729 11.1279 231.944)" fill="#1C1C22"/>
<ellipse cx="13.8408" cy="222.569" rx="0.686695" ry="0.686695" transform="rotate(-34.5729 13.8408 222.569)" fill="#1C1C22"/>
<ellipse cx="19.4951" cy="218.672" rx="0.686695" ry="0.686695" transform="rotate(-34.5729 19.4951 218.672)" fill="#1C1C22"/>
<ellipse cx="14.6436" cy="212.842" rx="0.686695" ry="0.686695" transform="rotate(-34.5729 14.6436 212.842)" fill="#1C1C22"/>
<ellipse cx="10.7466" cy="207.188" rx="0.686695" ry="0.686695" transform="rotate(-34.5729 10.7466 207.188)" fill="#1C1C22"/>
<ellipse cx="8.98928" cy="216.739" rx="0.686695" ry="0.686695" transform="rotate(-34.5729 8.98928 216.739)" fill="#1C1C22"/>
<ellipse cx="1.19582" cy="205.43" rx="0.686695" ry="0.686695" transform="rotate(-34.5729 1.19582 205.43)" fill="#1C1C22"/>
<ellipse cx="0.011737" cy="190.401" rx="0.686695" ry="0.686695" transform="rotate(-34.5729 0.011737 190.401)" fill="#1C1C22"/>
<ellipse cx="14.2617" cy="188.086" rx="0.686695" ry="0.686695" transform="rotate(-34.5729 14.2617 188.086)" fill="#1C1C22"/>
<ellipse cx="7.42336" cy="176.953" rx="0.686695" ry="0.686695" transform="rotate(-34.5729 7.42336 176.953)" fill="#1C1C22"/>
<ellipse cx="3.52687" cy="171.299" rx="0.686695" ry="0.686695" transform="rotate(-34.5729 3.52687 171.299)" fill="#1C1C22"/>
<ellipse cx="5.50881" cy="77.3628" rx="0.686695" ry="0.686695" transform="rotate(-34.5729 5.50881 77.3628)" fill="#1C1C22"/>
<ellipse cx="11.1621" cy="73.4665" rx="0.686695" ry="0.686695" transform="rotate(-34.5729 11.1621 73.4665)" fill="#1C1C22"/>
<ellipse cx="17.2066" cy="70.135" rx="0.686695" ry="0.686695" transform="rotate(-34.5729 17.2066 70.135)" fill="#1C1C22"/>
<ellipse cx="28.5152" cy="62.3413" rx="0.686695" ry="0.686695" transform="rotate(-34.5729 28.5152 62.3413)" fill="#1C1C22"/>
<ellipse cx="17.6196" cy="59.8425" rx="0.686695" ry="0.686695" transform="rotate(-34.5729 17.6196 59.8425)" fill="#1C1C22"/>
<ellipse cx="15.0674" cy="54.9297" rx="0.686695" ry="0.686695" transform="rotate(-34.5729 15.0674 54.9297)" fill="#1C1C22"/>
<ellipse cx="8.84767" cy="59.216" rx="0.686695" ry="0.686695" transform="rotate(-34.5729 8.84767 59.216)" fill="#1C1C22"/>
<ellipse cx="-0.138165" cy="57.0691" rx="0.686695" ry="0.686695" transform="rotate(-34.5729 -0.138165 57.0691)" fill="#1C1C22"/>
<ellipse cx="0.664569" cy="47.342" rx="0.686695" ry="0.686695" transform="rotate(-34.5729 0.664569 47.342)" fill="#1C1C22"/>
<ellipse cx="2.98781" cy="37.4013" rx="0.686695" ry="0.686695" transform="rotate(-34.5729 2.98781 37.4013)" fill="#1C1C22"/>
<ellipse cx="17.6275" cy="35.6521" rx="0.686695" ry="0.686695" transform="rotate(-34.5729 17.6275 35.6521)" fill="#1C1C22"/>
<ellipse cx="27.1782" cy="37.4096" rx="0.686695" ry="0.686695" transform="rotate(-34.5729 27.1782 37.4096)" fill="#1C1C22"/>
<ellipse cx="33.398" cy="33.1233" rx="0.686695" ry="0.686695" transform="rotate(-34.5729 33.398 33.1233)" fill="#1C1C22"/>
<ellipse cx="29.5015" cy="27.469" rx="0.686695" ry="0.686695" transform="rotate(-34.5729 29.5015 27.469)" fill="#1C1C22"/>
<ellipse cx="35.1563" cy="23.572" rx="0.686695" ry="0.686695" transform="rotate(-34.5729 35.1563 23.572)" fill="#1C1C22"/>
<ellipse cx="19.9507" cy="25.7114" rx="0.686695" ry="0.686695" transform="rotate(-34.5729 19.9507 25.7114)" fill="#1C1C22"/>
<ellipse cx="15.8779" cy="21.0122" rx="0.686695" ry="0.686695" transform="rotate(-34.5729 15.8779 21.0122)" fill="#1C1C22"/>
<ellipse cx="5.93752" cy="18.6892" rx="0.686695" ry="0.686695" transform="rotate(-34.5729 5.93752 18.6892)" fill="#1C1C22"/>
<ellipse cx="2.04055" cy="13.0349" rx="0.686695" ry="0.686695" transform="rotate(-34.5729 2.04055 13.0349)" fill="#1C1C22"/>
<ellipse cx="19.3931" cy="1.91038" rx="0.686695" ry="0.686695" transform="rotate(-34.5729 19.3931 1.91038)" fill="#1C1C22"/>
<ellipse cx="0.282733" cy="22.5862" rx="0.686695" ry="0.686695" transform="rotate(-34.5729 0.282733 22.5862)" fill="#1C1C22"/>
<ellipse cx="13.731" cy="29.9978" rx="0.686695" ry="0.686695" transform="rotate(-34.5729 13.731 29.9978)" fill="#1C1C22"/>
<ellipse cx="23.2818" cy="31.7554" rx="0.686695" ry="0.686695" transform="rotate(-34.5729 23.2818 31.7554)" fill="#1C1C22"/>
<ellipse cx="20.7222" cy="51.0329" rx="0.686695" ry="0.686695" transform="rotate(-34.5729 20.7222 51.0329)" fill="#1C1C22"/>
<ellipse cx="3.14553" cy="146.543" rx="0.686695" ry="0.686695" transform="rotate(-34.5729 3.14553 146.543)" fill="#1C1C22"/>
<ellipse cx="28.481" cy="220.819" rx="0.686695" ry="0.686695" transform="rotate(-34.5729 28.481 220.819)" fill="#1C1C22"/>
<ellipse cx="24.1948" cy="214.6" rx="0.686695" ry="0.686695" transform="rotate(-34.5729 24.1948 214.6)" fill="#1C1C22"/>
<ellipse cx="26.3413" cy="205.614" rx="0.686695" ry="0.686695" transform="rotate(-34.5729 26.3413 205.614)" fill="#1C1C22"/>
<ellipse cx="31.9961" cy="201.718" rx="0.686695" ry="0.686695" transform="rotate(-34.5729 31.9961 201.718)" fill="#1C1C22"/>
<ellipse cx="45.4439" cy="209.129" rx="0.686695" ry="0.686695" transform="rotate(-34.5729 45.4439 209.129)" fill="#1C1C22"/>
<ellipse cx="54.9951" cy="210.887" rx="0.686695" ry="0.686695" transform="rotate(-34.5729 54.9951 210.887)" fill="#1C1C22"/>
<ellipse cx="65.1113" cy="212.255" rx="0.686695" ry="0.686695" transform="rotate(-34.5729 65.1113 212.255)" fill="#1C1C22"/>
<ellipse cx="70.7652" cy="208.359" rx="0.686695" ry="0.686695" transform="rotate(-34.5729 70.7652 208.359)" fill="#1C1C22"/>
<ellipse cx="76.0298" cy="203.896" rx="0.686695" ry="0.686695" transform="rotate(-34.5729 76.0298 203.896)" fill="#1C1C22"/>
<ellipse cx="72.1333" cy="198.242" rx="0.686695" ry="0.686695" transform="rotate(-34.5729 72.1333 198.242)" fill="#1C1C22"/>
<ellipse cx="62.5821" cy="196.485" rx="0.686695" ry="0.686695" transform="rotate(-34.5729 62.5821 196.485)" fill="#1C1C22"/>
<ellipse cx="51.0982" cy="205.233" rx="0.686695" ry="0.686695" transform="rotate(-34.5729 51.0982 205.233)" fill="#1C1C22"/>
<ellipse cx="47.7666" cy="199.189" rx="0.686695" ry="0.686695" transform="rotate(-34.5729 47.7666 199.189)" fill="#1C1C22"/>
<ellipse cx="49.1348" cy="189.072" rx="0.686695" ry="0.686695" transform="rotate(-34.5729 49.1348 189.072)" fill="#1C1C22"/>
<ellipse cx="63.7744" cy="187.323" rx="0.686695" ry="0.686695" transform="rotate(-34.5729 63.7744 187.323)" fill="#1C1C22"/>
<ellipse cx="69.9942" cy="183.037" rx="0.686695" ry="0.686695" transform="rotate(-34.5729 69.9942 183.037)" fill="#1C1C22"/>
<ellipse cx="65.9219" cy="178.337" rx="0.686695" ry="0.686695" transform="rotate(-34.5729 65.9219 178.337)" fill="#1C1C22"/>
<ellipse cx="62.0254" cy="172.683" rx="0.686695" ry="0.686695" transform="rotate(-34.5729 62.0254 172.683)" fill="#1C1C22"/>
<ellipse cx="53.0396" cy="170.536" rx="0.686695" ry="0.686695" transform="rotate(-34.5729 53.0396 170.536)" fill="#1C1C22"/>
<ellipse cx="46.8198" cy="174.822" rx="0.686695" ry="0.686695" transform="rotate(-34.5729 46.8198 174.822)" fill="#1C1C22"/>
<ellipse cx="35.1221" cy="182.05" rx="0.686695" ry="0.686695" transform="rotate(-34.5729 35.1221 182.05)" fill="#1C1C22"/>
<ellipse cx="32.1802" cy="176.572" rx="0.686695" ry="0.686695" transform="rotate(-34.5729 32.1802 176.572)" fill="#1C1C22"/>
<ellipse cx="28.2832" cy="170.917" rx="0.686695" ry="0.686695" transform="rotate(-34.5729 28.2832 170.917)" fill="#1C1C22"/>
<ellipse cx="33.3721" cy="167.411" rx="0.686695" ry="0.686695" transform="rotate(-34.5729 33.3721 167.411)" fill="#1C1C22"/>
<ellipse cx="37.2686" cy="173.065" rx="0.686695" ry="0.686695" transform="rotate(-34.5729 37.2686 173.065)" fill="#1C1C22"/>
<ellipse cx="42.9234" cy="169.168" rx="0.686695" ry="0.686695" transform="rotate(-34.5729 42.9234 169.168)" fill="#1C1C22"/>
<ellipse cx="48.5777" cy="165.271" rx="0.686695" ry="0.686695" transform="rotate(-34.5729 48.5777 165.271)" fill="#1C1C22"/>
<ellipse cx="49.9458" cy="155.155" rx="0.686695" ry="0.686695" transform="rotate(-34.5729 49.9458 155.155)" fill="#1C1C22"/>
<ellipse cx="65.7158" cy="152.626" rx="0.686695" ry="0.686695" transform="rotate(-34.5729 65.7158 152.626)" fill="#1C1C22"/>
<ellipse cx="67.8633" cy="143.641" rx="0.686695" ry="0.686695" transform="rotate(-34.5729 67.8633 143.641)" fill="#1C1C22"/>
<ellipse cx="58.312" cy="141.883" rx="0.686695" ry="0.686695" transform="rotate(-34.5729 58.312 141.883)" fill="#1C1C22"/>
<ellipse cx="46.6143" cy="149.111" rx="0.686695" ry="0.686695" transform="rotate(-34.5729 46.6143 149.111)" fill="#1C1C22"/>
<ellipse cx="48.1958" cy="140.515" rx="0.686695" ry="0.686695" transform="rotate(-34.5729 48.1958 140.515)" fill="#1C1C22"/>
<ellipse cx="53.8501" cy="136.618" rx="0.686695" ry="0.686695" transform="rotate(-34.5729 53.8501 136.618)" fill="#1C1C22"/>
<ellipse cx="59.6802" cy="131.767" rx="0.686695" ry="0.686695" transform="rotate(-34.5729 59.6802 131.767)" fill="#1C1C22"/>
<ellipse cx="74.3198" cy="130.018" rx="0.686695" ry="0.686695" transform="rotate(-34.5729 74.3198 130.018)" fill="#1C1C22"/>
<ellipse cx="65.8999" cy="127.48" rx="0.686695" ry="0.686695" transform="rotate(-34.5729 65.8999 127.48)" fill="#1C1C22"/>
<ellipse cx="61.438" cy="122.216" rx="0.686695" ry="0.686695" transform="rotate(-34.5729 61.438 122.216)" fill="#1C1C22"/>
<ellipse cx="50.5186" cy="130.575" rx="0.686695" ry="0.686695" transform="rotate(-34.5729 50.5186 130.575)" fill="#1C1C22"/>
<ellipse cx="43.9092" cy="134.296" rx="0.686695" ry="0.686695" transform="rotate(-34.5729 43.9092 134.296)" fill="#1C1C22"/>
<ellipse cx="36.4976" cy="147.743" rx="0.686695" ry="0.686695" transform="rotate(-34.5729 36.4976 147.743)" fill="#1C1C22"/>
<ellipse cx="25.189" cy="155.537" rx="0.686695" ry="0.686695" transform="rotate(-34.5729 25.189 155.537)" fill="#1C1C22"/>
<ellipse cx="31.2329" cy="152.205" rx="0.686695" ry="0.686695" transform="rotate(-34.5729 31.2329 152.205)" fill="#1C1C22"/>
<ellipse cx="33.1665" cy="141.699" rx="0.686695" ry="0.686695" transform="rotate(-34.5729 33.1665 141.699)" fill="#1C1C22"/>
<ellipse cx="40.4024" cy="129.207" rx="0.686695" ry="0.686695" transform="rotate(-34.5729 40.4024 129.207)" fill="#1C1C22"/>
<ellipse cx="52.2764" cy="121.023" rx="0.686695" ry="0.686695" transform="rotate(-34.5729 52.2764 121.023)" fill="#1C1C22"/>
<ellipse cx="69.2393" cy="109.334" rx="0.686695" ry="0.686695" transform="rotate(-34.5729 69.2393 109.334)" fill="#1C1C22"/>
<ellipse cx="72.7461" cy="114.423" rx="0.686695" ry="0.686695" transform="rotate(-34.5729 72.7461 114.423)" fill="#1C1C22"/>
<ellipse cx="78.4009" cy="110.526" rx="0.686695" ry="0.686695" transform="rotate(-34.5729 78.4009 110.526)" fill="#1C1C22"/>
<ellipse cx="23.0498" cy="140.331" rx="0.686695" ry="0.686695" transform="rotate(-34.5729 23.0498 140.331)" fill="#1C1C22"/>
<ellipse cx="39.2022" cy="162.559" rx="0.686695" ry="0.686695" transform="rotate(-34.5729 39.2022 162.559)" fill="#1C1C22"/>
<ellipse cx="77.7954" cy="170.155" rx="0.686695" ry="0.686695" transform="rotate(-34.5729 77.7954 170.155)" fill="#1C1C22"/>
<ellipse cx="60.2676" cy="182.234" rx="0.686695" ry="0.686695" transform="rotate(-34.5729 60.2676 182.234)" fill="#1C1C22"/>
<ellipse cx="19.3111" cy="243.818" rx="0.686695" ry="0.686695" transform="rotate(-34.5729 19.3111 243.818)" fill="#1C1C22"/>
<ellipse cx="13.6572" cy="247.715" rx="0.686695" ry="0.686695" transform="rotate(-34.5729 13.6572 247.715)" fill="#1C1C22"/>
<ellipse cx="3.15139" cy="245.781" rx="0.686695" ry="0.686695" transform="rotate(-34.5729 3.15139 245.781)" fill="#1C1C22"/>
<ellipse cx="0.209491" cy="240.303" rx="0.686695" ry="0.686695" transform="rotate(-34.5729 0.209491 240.303)" fill="#1C1C22"/>
<ellipse cx="32.9434" cy="226.084" rx="0.686695" ry="0.686695" transform="rotate(-34.5729 32.9434 226.084)" fill="#1C1C22"/>
<ellipse cx="38.5967" cy="222.188" rx="0.686695" ry="0.686695" transform="rotate(-34.5729 38.5967 222.188)" fill="#1C1C22"/>
<ellipse cx="48.148" cy="223.945" rx="0.686695" ry="0.686695" transform="rotate(-34.5729 48.148 223.945)" fill="#1C1C22"/>
<ellipse cx="56.7442" cy="225.527" rx="0.686695" ry="0.686695" transform="rotate(-34.5729 56.7442 225.527)" fill="#1C1C22"/>
<ellipse cx="21.0611" cy="258.458" rx="0.686695" ry="0.686695" transform="rotate(-34.5729 21.0611 258.458)" fill="#1C1C22"/>
<ellipse cx="58.4619" cy="275.215" rx="0.686695" ry="0.686695" transform="rotate(-34.5729 58.4619 275.215)" fill="#1C1C22"/>
<ellipse cx="61.9693" cy="280.304" rx="0.686695" ry="0.686695" transform="rotate(-34.5729 61.9693 280.304)" fill="#1C1C22"/>
<ellipse cx="67.6236" cy="276.407" rx="0.686695" ry="0.686695" transform="rotate(-34.5729 67.6236 276.407)" fill="#1C1C22"/>
<ellipse cx="63.5513" cy="271.708" rx="0.686695" ry="0.686695" transform="rotate(-34.5729 63.5513 271.708)" fill="#1C1C22"/>
<ellipse cx="69.3804" cy="266.857" rx="0.686695" ry="0.686695" transform="rotate(-34.5729 69.3804 266.857)" fill="#1C1C22"/>
<ellipse cx="74.8594" cy="263.915" rx="0.686695" ry="0.686695" transform="rotate(-34.5729 74.8594 263.915)" fill="#1C1C22"/>
<ellipse cx="81.0791" cy="259.628" rx="0.686695" ry="0.686695" transform="rotate(-34.5729 81.0791 259.628)" fill="#1C1C22"/>
<ellipse cx="91.4326" cy="251.659" rx="0.686695" ry="0.686695" transform="rotate(-34.5729 91.4326 251.659)" fill="#1C1C22"/>
<ellipse cx="98.042" cy="247.938" rx="0.686695" ry="0.686695" transform="rotate(-34.5729 98.042 247.938)" fill="#1C1C22"/>
<ellipse cx="101.374" cy="253.982" rx="0.686695" ry="0.686695" transform="rotate(-34.5729 101.374 253.982)" fill="#1C1C22"/>
<ellipse cx="107.027" cy="250.086" rx="0.686695" ry="0.686695" transform="rotate(-34.5729 107.027 250.086)" fill="#1C1C22"/>
<ellipse cx="103.307" cy="243.476" rx="0.686695" ry="0.686695" transform="rotate(-34.5729 103.307 243.476)" fill="#1C1C22"/>
<ellipse cx="94.145" cy="242.284" rx="0.686695" ry="0.686695" transform="rotate(-34.5729 94.145 242.284)" fill="#1C1C22"/>
<ellipse cx="87.9253" cy="246.571" rx="0.686695" ry="0.686695" transform="rotate(-34.5729 87.9253 246.571)" fill="#1C1C22"/>
<ellipse cx="52.8076" cy="279.112" rx="0.686695" ry="0.686695" transform="rotate(-34.5729 52.8076 279.112)" fill="#1C1C22"/>
<ellipse cx="45.2119" cy="317.705" rx="0.686695" ry="0.686695" transform="rotate(-34.5729 45.2119 317.705)" fill="#1C1C22"/>
</svg>
