<svg width="16" height="16" viewBox="0 0 16 16" fill="none" xmlns="http://www.w3.org/2000/svg">
<path fill-rule="evenodd" clip-rule="evenodd" d="M1.33301 8.00004C1.33301 4.31804 4.31767 1.33337 7.99967 1.33337C11.6817 1.33337 14.6663 4.31804 14.6663 8.00004C14.6663 11.682 11.6817 14.6667 7.99967 14.6667C4.31767 14.6667 1.33301 11.682 1.33301 8.00004ZM9.99967 6.00004L7.53767 6.49271C7.27975 6.5444 7.04288 6.67123 6.85687 6.85724C6.67086 7.04324 6.54403 7.28012 6.49234 7.53804L5.99967 10L8.46167 9.50737C8.71972 9.4558 8.95674 9.32902 9.14287 9.14301C9.32901 8.95699 9.45594 8.72005 9.50767 8.46204L9.99967 6.00004Z" fill="#B5B7BC"/>
</svg>
