<svg width="24" height="24" viewBox="0 0 24 24" fill="none" xmlns="http://www.w3.org/2000/svg">
<path d="M18.4286 1.71387C19.4911 1.71387 20.3996 2.0911 21.1541 2.84556C21.9086 3.60003 22.2858 4.50851 22.2858 5.57101V18.4282C22.2858 19.4907 21.9086 20.3991 21.1541 21.1536C20.3996 21.9081 19.4911 22.2853 18.4286 22.2853H15.9108V14.3165H18.576L18.9777 11.2094H15.9108V9.22726C15.9108 8.72726 16.0157 8.35226 16.2255 8.10226C16.4353 7.85226 16.8438 7.72726 17.451 7.72726L19.0849 7.71387V4.94155C18.5224 4.86119 17.7277 4.82101 16.701 4.82101C15.4867 4.82101 14.5157 5.17815 13.788 5.89244C13.0603 6.60672 12.6965 7.61565 12.6965 8.91922V11.2094H10.0179V14.3165H12.6965V22.2853H5.5715C4.509 22.2853 3.60052 21.9081 2.84605 21.1536C2.09159 20.3991 1.71436 19.4907 1.71436 18.4282V5.57101C1.71436 4.50851 2.09159 3.60003 2.84605 2.84556C3.60052 2.0911 4.509 1.71387 5.5715 1.71387H18.4286Z" fill="white"/>
</svg>
