<svg width="16" height="16" viewBox="0 0 16 16" fill="none" xmlns="http://www.w3.org/2000/svg">
<path d="M8.01867 11.4867C8.16622 11.4867 8.29067 11.436 8.392 11.3347C8.49289 11.2324 8.54333 11.108 8.54333 10.9613C8.54333 10.8138 8.49244 10.6893 8.39067 10.588C8.28889 10.4867 8.16444 10.436 8.01733 10.436C7.86978 10.436 7.74533 10.4869 7.644 10.5887C7.54267 10.6904 7.492 10.8149 7.492 10.962C7.492 11.1096 7.54311 11.234 7.64533 11.3353C7.74667 11.4367 7.87111 11.4873 8.01867 11.4873M7.67467 9.27933H8.318C8.33489 8.98956 8.38933 8.754 8.48133 8.57267C8.57333 8.39178 8.76244 8.16067 9.04867 7.87933C9.34644 7.582 9.56778 7.31556 9.71267 7.08C9.858 6.84444 9.93067 6.572 9.93067 6.26267C9.93067 5.73733 9.74622 5.31867 9.37733 5.00667C9.008 4.69467 8.57111 4.53867 8.06667 4.53867C7.58711 4.53867 7.18 4.66889 6.84533 4.92933C6.51067 5.19022 6.26556 5.48978 6.11 5.828L6.72333 6.082C6.83 5.83933 6.98267 5.62489 7.18133 5.43867C7.38 5.252 7.66667 5.15867 8.04133 5.15867C8.47378 5.15867 8.78933 5.27733 8.988 5.51467C9.18756 5.752 9.28733 6.01289 9.28733 6.29733C9.28733 6.52844 9.22489 6.73467 9.1 6.916C8.97556 7.09778 8.81333 7.28044 8.61333 7.464C8.22667 7.82044 7.97333 8.12267 7.85333 8.37067C7.73422 8.61822 7.67467 8.92111 7.67467 9.27933ZM8.002 14C7.17267 14 6.39267 13.8427 5.662 13.528C4.93178 13.2129 4.29644 12.7853 3.756 12.2453C3.21556 11.7058 2.78778 11.0711 2.47267 10.3413C2.15756 9.61156 2 8.83178 2 8.002C2 7.17267 2.15733 6.39267 2.472 5.662C2.78711 4.93178 3.21467 4.29644 3.75467 3.756C4.29422 3.21556 4.92889 2.78778 5.65867 2.47267C6.38844 2.15756 7.16822 2 7.998 2C8.82733 2 9.60733 2.15733 10.338 2.472C11.0682 2.78711 11.7036 3.21467 12.244 3.75467C12.7844 4.29422 13.2122 4.92889 13.5273 5.65867C13.8424 6.38844 14 7.16822 14 7.998C14 8.82733 13.8427 9.60733 13.528 10.338C13.2129 11.0682 12.7853 11.7036 12.2453 12.244C11.7058 12.7844 11.0711 13.2122 10.3413 13.5273C9.61156 13.8424 8.83178 14 8.002 14ZM8 13.3333C9.48889 13.3333 10.75 12.8167 11.7833 11.7833C12.8167 10.75 13.3333 9.48889 13.3333 8C13.3333 6.51111 12.8167 5.25 11.7833 4.21667C10.75 3.18333 9.48889 2.66667 8 2.66667C6.51111 2.66667 5.25 3.18333 4.21667 4.21667C3.18333 5.25 2.66667 6.51111 2.66667 8C2.66667 9.48889 3.18333 10.75 4.21667 11.7833C5.25 12.8167 6.51111 13.3333 8 13.3333Z" fill="#98A2B3"/>
</svg>
