<svg width="215" height="323" viewBox="0 0 215 323" fill="none" xmlns="http://www.w3.org/2000/svg">
<path d="M186.606 136.127H123.553C106.984 136.127 93.553 149.559 93.553 166.127V323" stroke="url(#paint0_linear_326_4341)"/>
<path d="M93.5537 210.232L30.5003 210.232C13.9317 210.232 0.500272 196.8 0.500269 180.232L0.500238 1.61961e-05" stroke="url(#paint1_linear_326_4341)"/>
<g filter="url(#filter0_dddd_326_4341)">
<path d="M199.292 124.006L199.103 148.251C199.084 150.757 197.036 152.764 194.518 152.746L178.989 152.63C176.471 152.611 174.455 150.573 174.475 148.067L174.663 123.823C174.683 121.317 176.731 119.309 179.248 119.328L194.778 119.444C197.295 119.462 199.311 121.5 199.292 124.006Z" fill="#E3D7F9"/>
</g>
<path d="M178.299 148.162C178.883 149.1 180.11 149.397 181.031 148.796C181.971 148.217 182.244 147.016 181.66 146.078C181.077 145.14 179.87 144.866 178.929 145.445C177.988 146.023 177.693 147.244 178.299 148.162Z" fill="url(#paint2_linear_326_4341)"/>
<path style="mix-blend-mode:multiply" d="M178.299 148.162C178.883 149.1 180.09 149.374 181.031 148.796C181.971 148.217 182.244 147.016 181.66 146.078C181.077 145.14 179.87 144.866 178.929 145.445C177.988 146.023 177.716 147.224 178.299 148.162ZM178.747 147.893C178.298 147.199 178.551 146.296 179.223 145.871C179.939 145.449 180.827 145.68 181.256 146.35C181.704 147.044 181.452 147.947 180.779 148.372C180.106 148.798 179.176 148.564 178.747 147.893Z" fill="url(#paint3_radial_326_4341)"/>
<path d="M181.461 147.135C181.472 146.322 180.783 145.677 179.967 145.665C179.151 145.652 178.484 146.314 178.494 147.149C178.484 147.961 179.172 148.607 179.988 148.619C180.804 148.631 181.471 147.97 181.461 147.135Z" fill="url(#paint4_radial_326_4341)"/>
<path d="M179.702 148.707C178.96 148.55 178.4 147.913 178.387 147.12C178.375 146.328 178.933 145.681 179.695 145.54L179.725 148.687L179.702 148.707Z" fill="url(#paint5_radial_326_4341)"/>
<path d="M180.304 148.703L180.274 145.556C181.016 145.713 181.576 146.35 181.569 147.12C181.581 147.912 181.023 148.559 180.262 148.7L180.304 148.703Z" fill="url(#paint6_radial_326_4341)"/>
<path d="M179.703 148.706L179.754 148.581L179.73 145.67L179.673 145.559L179.703 148.706Z" fill="#2C2E32"/>
<path d="M180.305 148.704L180.27 148.573L180.223 145.682L180.297 145.537L180.305 148.704Z" fill="#5D636C"/>
<path d="M191.804 147.428C191.906 148.505 192.885 149.299 193.966 149.2C195.048 149.102 195.842 148.129 195.741 147.052C195.64 145.975 194.66 145.182 193.559 145.257C192.478 145.356 191.683 146.329 191.784 147.406L191.804 147.428Z" fill="url(#paint7_linear_326_4341)"/>
<path style="mix-blend-mode:multiply" d="M191.804 147.428C191.905 148.505 192.885 149.299 193.966 149.2C195.048 149.102 195.842 148.129 195.741 147.052C195.64 145.975 194.66 145.182 193.579 145.28C192.498 145.378 191.703 146.352 191.804 147.428ZM192.301 147.398C192.225 146.58 192.809 145.87 193.631 145.797C194.452 145.724 195.167 146.307 195.242 147.125C195.317 147.943 194.733 148.653 193.912 148.726C193.09 148.799 192.376 148.216 192.301 147.398Z" fill="url(#paint8_radial_326_4341)"/>
<path d="M195.128 147.867C195.497 147.143 195.168 146.265 194.44 145.895C193.712 145.524 192.831 145.85 192.461 146.574C192.091 147.298 192.42 148.176 193.148 148.546C193.876 148.916 194.758 148.591 195.128 147.867Z" fill="url(#paint9_radial_326_4341)"/>
<path d="M192.83 148.504C192.216 148.035 191.989 147.228 192.336 146.523C192.684 145.819 193.479 145.488 194.219 145.687L192.85 148.527L192.83 148.504Z" fill="url(#paint10_radial_326_4341)"/>
<path d="M193.39 148.776L194.759 145.936C195.353 146.383 195.577 147.233 195.253 147.917C194.905 148.621 194.11 148.953 193.39 148.776Z" fill="url(#paint11_radial_326_4341)"/>
<path d="M192.828 148.504L192.92 148.425L194.209 145.814L194.198 145.664L192.828 148.504Z" fill="#2C2E32"/>
<path d="M193.391 148.777L193.4 148.649L194.666 146.058L194.781 145.959L193.391 148.777Z" fill="#5D636C"/>
<path d="M178.717 126.214C179.46 127.013 180.724 127.077 181.527 126.296C182.328 125.559 182.389 124.3 181.603 123.498C180.861 122.699 179.597 122.636 178.793 123.416C177.992 124.154 177.931 125.412 178.717 126.214Z" fill="url(#paint12_linear_326_4341)"/>
<path style="mix-blend-mode:multiply" d="M178.718 126.214C179.461 127.013 180.725 127.077 181.528 126.296C182.329 125.559 182.367 124.32 181.605 123.498C180.862 122.699 179.598 122.636 178.794 123.416C177.993 124.154 177.955 125.392 178.718 126.214ZM179.106 125.876C178.566 125.262 178.581 124.365 179.177 123.806C179.793 123.269 180.694 123.287 181.257 123.882C181.797 124.496 181.781 125.393 181.186 125.952C180.57 126.488 179.668 126.471 179.106 125.876Z" fill="url(#paint13_radial_326_4341)"/>
<path d="M181.597 124.589C181.433 123.808 180.65 123.284 179.866 123.445C179.082 123.607 178.558 124.384 178.721 125.166C178.885 125.947 179.668 126.47 180.452 126.309C181.236 126.148 181.76 125.371 181.597 124.589Z" fill="url(#paint14_radial_326_4341)"/>
<path d="M180.161 126.483C179.408 126.497 178.711 125.979 178.548 125.198C178.384 124.417 178.82 123.676 179.504 123.401L180.138 126.503L180.161 126.483Z" fill="url(#paint15_radial_326_4341)"/>
<path d="M180.795 126.332L180.16 123.23C180.913 123.217 181.587 123.754 181.754 124.493C181.917 125.274 181.505 125.995 180.798 126.289L180.795 126.332Z" fill="url(#paint16_radial_326_4341)"/>
<path d="M180.16 126.483L180.191 126.335L179.626 123.495L179.526 123.381L180.16 126.483Z" fill="#2C2E32"/>
<path d="M180.795 126.332L180.715 126.241L180.127 123.421L180.158 123.273L180.795 126.332Z" fill="#5D636C"/>
<path d="M192.047 125.511C192.342 126.579 193.441 127.188 194.494 126.874C195.566 126.583 196.175 125.49 195.857 124.441C195.562 123.373 194.463 122.764 193.39 123.055C192.318 123.347 191.709 124.44 192.004 125.508L192.047 125.511Z" fill="url(#paint17_linear_326_4341)"/>
<path style="mix-blend-mode:multiply" d="M192.048 125.511C192.343 126.579 193.442 127.188 194.495 126.874C195.567 126.583 196.176 125.49 195.858 124.441C195.563 123.373 194.463 122.764 193.411 123.078C192.339 123.37 191.73 124.462 192.048 125.511ZM192.53 125.372C192.323 124.588 192.784 123.785 193.552 123.558C194.339 123.355 195.147 123.816 195.376 124.58C195.583 125.364 195.121 126.168 194.354 126.394C193.567 126.598 192.759 126.137 192.53 125.372Z" fill="url(#paint18_radial_326_4341)"/>
<path d="M195.389 125.373C195.613 124.575 195.15 123.773 194.368 123.571C193.566 123.345 192.762 123.805 192.56 124.583C192.336 125.381 192.799 126.182 193.581 126.385C194.383 126.61 195.187 126.151 195.409 125.395L195.389 125.373Z" fill="url(#paint19_radial_326_4341)"/>
<path d="M193.236 126.405C192.571 126.061 192.213 125.288 192.392 124.529C192.613 123.774 193.332 123.309 194.079 123.381L193.213 126.425L193.236 126.405Z" fill="url(#paint20_radial_326_4341)"/>
<path d="M193.826 126.572L194.669 123.547C195.334 123.892 195.692 124.665 195.493 125.4C195.272 126.156 194.553 126.621 193.806 126.549L193.826 126.572Z" fill="url(#paint21_radial_326_4341)"/>
<path d="M193.235 126.405L193.329 126.283L194.113 123.51L194.102 123.36L193.235 126.405Z" fill="#2C2E32"/>
<path d="M193.826 126.572L193.815 126.422L194.599 123.649L194.713 123.55L193.826 126.572Z" fill="#5D636C"/>
<defs>
<filter id="filter0_dddd_326_4341" x="173.475" y="117.328" width="40.8174" height="47.418" filterUnits="userSpaceOnUse" color-interpolation-filters="sRGB">
<feFlood flood-opacity="0" result="BackgroundImageFix"/>
<feColorMatrix in="SourceAlpha" type="matrix" values="0 0 0 0 0 0 0 0 0 0 0 0 0 0 0 0 0 0 127 0" result="hardAlpha"/>
<feOffset dx="1"/>
<feGaussianBlur stdDeviation="1"/>
<feColorMatrix type="matrix" values="0 0 0 0 0.556863 0 0 0 0 0.564706 0 0 0 0 0.764706 0 0 0 0.1 0"/>
<feBlend mode="normal" in2="BackgroundImageFix" result="effect1_dropShadow_326_4341"/>
<feColorMatrix in="SourceAlpha" type="matrix" values="0 0 0 0 0 0 0 0 0 0 0 0 0 0 0 0 0 0 127 0" result="hardAlpha"/>
<feOffset dx="2" dy="2"/>
<feGaussianBlur stdDeviation="1.5"/>
<feColorMatrix type="matrix" values="0 0 0 0 0.556863 0 0 0 0 0.564706 0 0 0 0 0.764706 0 0 0 0.09 0"/>
<feBlend mode="normal" in2="effect1_dropShadow_326_4341" result="effect2_dropShadow_326_4341"/>
<feColorMatrix in="SourceAlpha" type="matrix" values="0 0 0 0 0 0 0 0 0 0 0 0 0 0 0 0 0 0 127 0" result="hardAlpha"/>
<feOffset dx="6" dy="4"/>
<feGaussianBlur stdDeviation="2"/>
<feColorMatrix type="matrix" values="0 0 0 0 0.556863 0 0 0 0 0.564706 0 0 0 0 0.764706 0 0 0 0.05 0"/>
<feBlend mode="normal" in2="effect2_dropShadow_326_4341" result="effect3_dropShadow_326_4341"/>
<feColorMatrix in="SourceAlpha" type="matrix" values="0 0 0 0 0 0 0 0 0 0 0 0 0 0 0 0 0 0 127 0" result="hardAlpha"/>
<feOffset dx="10" dy="7"/>
<feGaussianBlur stdDeviation="2.5"/>
<feColorMatrix type="matrix" values="0 0 0 0 0.556863 0 0 0 0 0.564706 0 0 0 0 0.764706 0 0 0 0.01 0"/>
<feBlend mode="normal" in2="effect3_dropShadow_326_4341" result="effect4_dropShadow_326_4341"/>
<feBlend mode="normal" in="SourceGraphic" in2="effect4_dropShadow_326_4341" result="shape"/>
</filter>
<linearGradient id="paint0_linear_326_4341" x1="140.08" y1="323" x2="140.08" y2="136.127" gradientUnits="userSpaceOnUse">
<stop stop-color="#1C1C21" stop-opacity="0"/>
<stop offset="0.693196" stop-color="#1C1C21"/>
</linearGradient>
<linearGradient id="paint1_linear_326_4341" x1="47.027" y1="8.09806e-06" x2="47.027" y2="210.232" gradientUnits="userSpaceOnUse">
<stop stop-color="#1C1C21" stop-opacity="0"/>
<stop offset="0.693196" stop-color="#1C1C21"/>
</linearGradient>
<linearGradient id="paint2_linear_326_4341" x1="178.107" y1="146.501" x2="181.933" y2="147.564" gradientUnits="userSpaceOnUse">
<stop stop-color="#646A73"/>
<stop offset="1" stop-color="#BDC8D9"/>
</linearGradient>
<radialGradient id="paint3_radial_326_4341" cx="0" cy="0" r="1" gradientTransform="matrix(-1.63671 -1.09796 1.09889 -1.62689 180.016 147.121)" gradientUnits="userSpaceOnUse">
<stop offset="0.83" stop-color="#1D1E21"/>
<stop offset="0.86" stop-color="#3C3F44"/>
<stop offset="0.9" stop-color="#565B63"/>
<stop offset="0.94" stop-color="#6A707A"/>
<stop offset="0.97" stop-color="#767C87"/>
<stop offset="1" stop-color="#7A818C"/>
</radialGradient>
<radialGradient id="paint4_radial_326_4341" cx="0" cy="0" r="1" gradientTransform="matrix(1.4861 -0.00349188 -0.0070666 -1.47958 179.965 147.114)" gradientUnits="userSpaceOnUse">
<stop offset="0.56" stop-color="#383B40"/>
<stop offset="0.81" stop-color="#36393E"/>
<stop offset="0.9" stop-color="#303237"/>
<stop offset="0.96" stop-color="#26272B"/>
<stop offset="1" stop-color="#1D1E21"/>
</radialGradient>
<radialGradient id="paint5_radial_326_4341" cx="0" cy="0" r="1" gradientTransform="matrix(2.63846 -0.00619946 -0.0125465 -2.62688 179.087 147.66)" gradientUnits="userSpaceOnUse">
<stop stop-color="#7A818C"/>
<stop offset="1" stop-color="#202225"/>
</radialGradient>
<radialGradient id="paint6_radial_326_4341" cx="0" cy="0" r="1" gradientTransform="matrix(2.57783 -0.00606121 -0.0122538 -2.56652 179.299 147.658)" gradientUnits="userSpaceOnUse">
<stop stop-color="#7A818C"/>
<stop offset="1" stop-color="#202225"/>
</radialGradient>
<linearGradient id="paint7_linear_326_4341" x1="192.247" y1="145.793" x2="195.237" y2="148.433" gradientUnits="userSpaceOnUse">
<stop stop-color="#646A73"/>
<stop offset="1" stop-color="#BDC8D9"/>
</linearGradient>
<radialGradient id="paint8_radial_326_4341" cx="0" cy="0" r="1" gradientTransform="matrix(-1.63671 -1.09796 1.09889 -1.62689 193.805 147.222)" gradientUnits="userSpaceOnUse">
<stop offset="0.83" stop-color="#1D1E21"/>
<stop offset="0.86" stop-color="#3C3F44"/>
<stop offset="0.9" stop-color="#565B63"/>
<stop offset="0.94" stop-color="#6A707A"/>
<stop offset="0.97" stop-color="#767C87"/>
<stop offset="1" stop-color="#7A818C"/>
</radialGradient>
<radialGradient id="paint9_radial_326_4341" cx="0" cy="0" r="1" gradientTransform="matrix(1.33711 0.648952 0.64862 -1.32968 193.731 147.188)" gradientUnits="userSpaceOnUse">
<stop offset="0.56" stop-color="#383B40"/>
<stop offset="0.81" stop-color="#36393E"/>
<stop offset="0.9" stop-color="#303237"/>
<stop offset="0.96" stop-color="#26272B"/>
<stop offset="1" stop-color="#1D1E21"/>
</radialGradient>
<radialGradient id="paint10_radial_326_4341" cx="0" cy="0" r="1" gradientTransform="matrix(2.37467 1.15253 1.15193 -2.36148 192.675 147.28)" gradientUnits="userSpaceOnUse">
<stop stop-color="#7A818C"/>
<stop offset="1" stop-color="#202225"/>
</radialGradient>
<radialGradient id="paint11_radial_326_4341" cx="0" cy="0" r="1" gradientTransform="matrix(2.3201 1.12604 1.12546 -2.30722 192.891 147.384)" gradientUnits="userSpaceOnUse">
<stop stop-color="#7A818C"/>
<stop offset="1" stop-color="#202225"/>
</radialGradient>
<linearGradient id="paint12_linear_326_4341" x1="178.166" y1="124.756" x2="182.169" y2="125.04" gradientUnits="userSpaceOnUse">
<stop stop-color="#646A73"/>
<stop offset="1" stop-color="#BDC8D9"/>
</linearGradient>
<radialGradient id="paint13_radial_326_4341" cx="0" cy="0" r="1" gradientTransform="matrix(-1.63671 -1.09795 1.0989 -1.62688 180.197 124.853)" gradientUnits="userSpaceOnUse">
<stop offset="0.83" stop-color="#1D1E21"/>
<stop offset="0.86" stop-color="#3C3F44"/>
<stop offset="0.9" stop-color="#565B63"/>
<stop offset="0.94" stop-color="#6A707A"/>
<stop offset="0.97" stop-color="#767C87"/>
<stop offset="1" stop-color="#7A818C"/>
</radialGradient>
<radialGradient id="paint14_radial_326_4341" cx="0" cy="0" r="1" gradientTransform="matrix(1.45555 -0.295115 -0.299905 -1.44986 180.216 124.805)" gradientUnits="userSpaceOnUse">
<stop offset="0.56" stop-color="#383B40"/>
<stop offset="0.81" stop-color="#36393E"/>
<stop offset="0.9" stop-color="#303237"/>
<stop offset="0.96" stop-color="#26272B"/>
<stop offset="1" stop-color="#1D1E21"/>
</radialGradient>
<radialGradient id="paint15_radial_326_4341" cx="0" cy="0" r="1" gradientTransform="matrix(2.58384 -0.523883 -0.532376 -2.57374 179.435 125.519)" gradientUnits="userSpaceOnUse">
<stop stop-color="#7A818C"/>
<stop offset="1" stop-color="#202225"/>
</radialGradient>
<radialGradient id="paint16_radial_326_4341" cx="0" cy="0" r="1" gradientTransform="matrix(2.52447 -0.511844 -0.520144 -2.5146 179.644 125.475)" gradientUnits="userSpaceOnUse">
<stop stop-color="#7A818C"/>
<stop offset="1" stop-color="#202225"/>
</radialGradient>
<linearGradient id="paint17_linear_326_4341" x1="192.127" y1="123.989" x2="195.541" y2="126.097" gradientUnits="userSpaceOnUse">
<stop stop-color="#646A73"/>
<stop offset="1" stop-color="#BDC8D9"/>
</linearGradient>
<radialGradient id="paint18_radial_326_4341" cx="0" cy="0" r="1" gradientTransform="matrix(-1.63671 -1.09796 1.09889 -1.62688 193.984 124.955)" gradientUnits="userSpaceOnUse">
<stop offset="0.83" stop-color="#1D1E21"/>
<stop offset="0.86" stop-color="#3C3F44"/>
<stop offset="0.9" stop-color="#565B63"/>
<stop offset="0.94" stop-color="#6A707A"/>
<stop offset="0.97" stop-color="#767C87"/>
<stop offset="1" stop-color="#7A818C"/>
</radialGradient>
<radialGradient id="paint19_radial_326_4341" cx="0" cy="0" r="1" gradientTransform="matrix(1.42964 0.40745 0.405831 -1.42238 194.017 124.908)" gradientUnits="userSpaceOnUse">
<stop offset="0.56" stop-color="#383B40"/>
<stop offset="0.81" stop-color="#36393E"/>
<stop offset="0.9" stop-color="#303237"/>
<stop offset="0.96" stop-color="#26272B"/>
<stop offset="1" stop-color="#1D1E21"/>
</radialGradient>
<radialGradient id="paint20_radial_326_4341" cx="0" cy="0" r="1" gradientTransform="matrix(2.53869 0.723531 0.72066 -2.5258 192.992 125.182)" gradientUnits="userSpaceOnUse">
<stop stop-color="#7A818C"/>
<stop offset="1" stop-color="#202225"/>
</radialGradient>
<radialGradient id="paint21_radial_326_4341" cx="0" cy="0" r="1" gradientTransform="matrix(2.48036 0.706905 0.704099 -2.46776 193.195 125.239)" gradientUnits="userSpaceOnUse">
<stop stop-color="#7A818C"/>
<stop offset="1" stop-color="#202225"/>
</radialGradient>
</defs>
</svg>
