<svg width="23" height="24" viewBox="0 0 23 24" fill="none" xmlns="http://www.w3.org/2000/svg">
<path d="M2.10794 16.3081C1.93073 17.4698 2.72301 18.2761 3.69305 18.678C7.41201 20.2186 12.5873 20.2186 16.3063 18.678C17.2763 18.2761 18.0686 17.4698 17.8914 16.3081C17.7825 15.5942 17.244 14.9997 16.845 14.4192C16.3224 13.6495 16.2705 12.8099 16.2704 11.9167C16.2704 8.46497 13.4629 5.66675 9.99968 5.66675C6.53645 5.66675 3.72895 8.46497 3.72895 11.9167C3.72887 12.8099 3.67694 13.6495 3.15435 14.4192C2.75537 14.9997 2.21685 15.5942 2.10794 16.3081Z" stroke="#111827" stroke-width="1.5" stroke-linecap="round" stroke-linejoin="round"/>
<path d="M6.66602 19.8334C7.04809 21.2711 8.39562 22.3334 9.99935 22.3334C11.6031 22.3334 12.9506 21.2711 13.3327 19.8334" stroke="#111827" stroke-width="1.5" stroke-linecap="round" stroke-linejoin="round"/>
<rect x="8.99609" width="14" height="16" rx="7" fill="#FF3F3F"/>
<path d="M13.3721 9.864V8.984L15.9881 5.24H17.2921V8.888H17.9961V9.864H17.2921V11H16.1721V9.864H13.3721ZM16.2441 6.44L14.6041 8.888H16.2441V6.44Z" fill="white"/>
</svg>
