<svg width="20" height="20" viewBox="0 0 20 20" fill="none" xmlns="http://www.w3.org/2000/svg">
<path d="M2.10794 12.308C1.93073 13.4697 2.72301 14.276 3.69305 14.6778C7.41201 16.2184 12.5873 16.2184 16.3063 14.6778C17.2763 14.276 18.0686 13.4697 17.8914 12.308C17.7825 11.594 17.244 10.9996 16.845 10.4191C16.3224 9.64935 16.2705 8.80982 16.2704 7.91663C16.2704 4.46485 13.4629 1.66663 9.99968 1.66663C6.53645 1.66663 3.72895 4.46485 3.72895 7.91663C3.72887 8.80982 3.67694 9.64935 3.15435 10.4191C2.75537 10.9996 2.21685 11.594 2.10794 12.308Z" stroke="#111827" stroke-width="1.5" stroke-linecap="round" stroke-linejoin="round"/>
<path d="M6.66699 15.8334C7.04906 17.2711 8.3966 18.3334 10.0003 18.3334C11.604 18.3334 12.9516 17.2711 13.3337 15.8334" stroke="#111827" stroke-width="1.5" stroke-linecap="round" stroke-linejoin="round"/>
</svg>
