<svg width="16" height="16" viewBox="0 0 16 16" fill="none" xmlns="http://www.w3.org/2000/svg">
<g clip-path="url(#clip0_311_3915)">
<path d="M1.33301 5.33333C1.33301 5.33333 4.31767 2 7.99967 2C11.6817 2 14.6663 5.33333 14.6663 5.33333" stroke="#BD05CE" stroke-linecap="round"/>
<path d="M14.3623 8.69663C14.565 8.98063 14.6663 9.12329 14.6663 9.33329C14.6663 9.54396 14.565 9.68596 14.3623 9.96996C13.4517 11.2473 11.1257 14 7.99967 14C4.87301 14 2.54767 11.2466 1.63701 9.96996C1.43434 9.68596 1.33301 9.54329 1.33301 9.33329C1.33301 9.12263 1.43434 8.98063 1.63701 8.69663C2.54767 7.41929 4.87367 4.66663 7.99967 4.66663C11.1263 4.66663 13.4517 7.41996 14.3623 8.69663Z" stroke="#BD05CE"/>
<path d="M10 9.33337C10 8.80294 9.78929 8.29423 9.41421 7.91916C9.03914 7.54409 8.53043 7.33337 8 7.33337C7.46957 7.33337 6.96086 7.54409 6.58579 7.91916C6.21071 8.29423 6 8.80294 6 9.33337C6 9.86381 6.21071 10.3725 6.58579 10.7476C6.96086 11.1227 7.46957 11.3334 8 11.3334C8.53043 11.3334 9.03914 11.1227 9.41421 10.7476C9.78929 10.3725 10 9.86381 10 9.33337Z" stroke="#BD05CE"/>
</g>
<defs>
<clipPath id="clip0_311_3915">
<rect width="16" height="16" fill="white"/>
</clipPath>
</defs>
</svg>
