<svg width="213" height="323" viewBox="0 0 213 323" fill="none" xmlns="http://www.w3.org/2000/svg">
<path d="M25.8936 136.127H88.947C105.516 136.127 118.947 149.559 118.947 166.127V323" stroke="url(#paint0_linear_326_4379)"/>
<path d="M118.946 210.232L182 210.232C198.568 210.232 212 196.8 212 180.232L212 1.61961e-05" stroke="url(#paint1_linear_326_4379)"/>
<g filter="url(#filter0_dddd_326_4379)">
<path d="M38.578 124.006L38.3893 148.251C38.3698 150.757 36.3219 152.764 33.8044 152.746L18.275 152.63C15.7576 152.611 13.7411 150.573 13.7606 148.067L13.9494 123.823C13.9689 121.317 16.0168 119.309 18.5343 119.328L34.0637 119.444C36.5811 119.462 38.5975 121.5 38.578 124.006Z" fill="#E3D7F9"/>
</g>
<path d="M17.5854 148.162C18.1687 149.1 19.396 149.397 20.3167 148.796C21.2575 148.217 21.5298 147.016 20.9465 146.078C20.3632 145.14 19.1559 144.866 18.2152 145.445C17.2744 146.023 16.9793 147.244 17.5854 148.162Z" fill="url(#paint2_linear_326_4379)"/>
<path style="mix-blend-mode:multiply" d="M17.5854 148.162C18.1687 149.1 19.376 149.374 20.3167 148.796C21.2575 148.217 21.5298 147.016 20.9465 146.078C20.3632 145.14 19.1559 144.866 18.2152 145.445C17.2744 146.023 17.0021 147.224 17.5854 148.162ZM18.033 147.893C17.5841 147.199 17.8369 146.296 18.5096 145.871C19.2252 145.449 20.1128 145.68 20.5417 146.35C20.9906 147.044 20.7378 147.947 20.0651 148.372C19.3923 148.798 18.4619 148.564 18.033 147.893Z" fill="url(#paint3_radial_326_4379)"/>
<path d="M20.7474 147.135C20.7577 146.322 20.0693 145.677 19.2533 145.665C18.4373 145.652 17.7705 146.314 17.7802 147.149C17.7699 147.961 18.4583 148.607 19.2744 148.619C20.0904 148.631 20.7571 147.97 20.7474 147.135Z" fill="url(#paint4_radial_326_4379)"/>
<path d="M18.988 148.707C18.2461 148.55 17.686 147.913 17.6735 147.12C17.6611 146.328 18.2194 145.681 18.9809 145.54L19.0108 148.687L18.988 148.707Z" fill="url(#paint5_radial_326_4379)"/>
<path d="M19.5905 148.703L19.5606 145.556C20.3025 145.713 20.8626 146.35 20.8551 147.12C20.8675 147.912 20.3092 148.559 19.5477 148.7L19.5905 148.703Z" fill="url(#paint6_radial_326_4379)"/>
<path d="M18.9889 148.706L19.0401 148.581L19.0162 145.67L18.959 145.559L18.9889 148.706Z" fill="#2C2E32"/>
<path d="M19.5906 148.704L19.5562 148.573L19.5096 145.682L19.5835 145.537L19.5906 148.704Z" fill="#5D636C"/>
<path d="M31.0903 147.428C31.1917 148.505 32.1713 149.299 33.2525 149.2C34.3337 149.102 35.1284 148.129 35.0271 147.052C34.9258 145.975 33.9461 145.182 32.8449 145.257C31.7638 145.356 30.969 146.329 31.0703 147.406L31.0903 147.428Z" fill="url(#paint7_linear_326_4379)"/>
<path style="mix-blend-mode:multiply" d="M31.0903 147.428C31.1916 148.505 32.1713 149.299 33.2525 149.2C34.3337 149.102 35.1284 148.129 35.0271 147.052C34.9258 145.975 33.9461 145.182 32.8649 145.28C31.7837 145.378 30.989 146.352 31.0903 147.428ZM31.5867 147.398C31.5114 146.58 32.0954 145.87 32.917 145.797C33.7386 145.724 34.4526 146.307 34.5279 147.125C34.6032 147.943 34.0193 148.653 33.1977 148.726C32.3761 148.799 31.662 148.216 31.5867 147.398Z" fill="url(#paint8_radial_326_4379)"/>
<path d="M34.4136 147.867C34.7836 147.143 34.4543 146.265 33.7263 145.895C32.9982 145.524 32.117 145.85 31.7471 146.574C31.3772 147.298 31.7065 148.176 32.4345 148.546C33.1625 148.916 34.0437 148.591 34.4136 147.867Z" fill="url(#paint9_radial_326_4379)"/>
<path d="M32.116 148.504C31.5018 148.035 31.2752 147.228 31.6225 146.523C31.9697 145.819 32.7655 145.488 33.5049 145.687L32.136 148.527L32.116 148.504Z" fill="url(#paint10_radial_326_4379)"/>
<path d="M32.6762 148.776L34.0452 145.936C34.6394 146.383 34.8631 147.233 34.5387 147.917C34.1914 148.621 33.3957 148.953 32.6762 148.776Z" fill="url(#paint11_radial_326_4379)"/>
<path d="M32.1144 148.504L32.2057 148.425L33.4953 145.814L33.4837 145.664L32.1144 148.504Z" fill="#2C2E32"/>
<path d="M32.6774 148.777L32.6858 148.649L33.9526 146.058L34.0667 145.959L32.6774 148.777Z" fill="#5D636C"/>
<path d="M18.003 126.214C18.7459 127.013 20.0099 127.077 20.8134 126.296C21.6142 125.559 21.6753 124.3 20.8896 123.498C20.1467 122.699 18.8827 122.636 18.0791 123.416C17.2784 124.154 17.2173 125.412 18.003 126.214Z" fill="url(#paint12_linear_326_4379)"/>
<path style="mix-blend-mode:multiply" d="M18.0042 126.214C18.747 127.013 20.011 127.077 20.8146 126.296C21.6153 125.559 21.6536 124.32 20.8907 123.498C20.1478 122.699 18.8838 122.636 18.0803 123.416C17.2796 124.154 17.2413 125.392 18.0042 126.214ZM18.3917 125.876C17.8517 125.262 17.8676 124.365 18.4631 123.806C19.0787 123.269 19.9803 123.287 20.5431 123.882C21.0832 124.496 21.0673 125.393 20.4717 125.952C19.8562 126.488 18.9546 126.471 18.3917 125.876Z" fill="url(#paint13_radial_326_4379)"/>
<path d="M20.8827 124.589C20.7191 123.808 19.9366 123.284 19.1522 123.445C18.3678 123.607 17.8439 124.384 18.0076 125.166C18.1712 125.947 18.9537 126.47 19.7381 126.309C20.5225 126.148 21.0464 125.371 20.8827 124.589Z" fill="url(#paint14_radial_326_4379)"/>
<path d="M19.4474 126.483C18.6943 126.497 17.9976 125.979 17.834 125.198C17.6703 124.417 18.1058 123.676 18.79 123.401L19.4246 126.503L19.4474 126.483Z" fill="url(#paint15_radial_326_4379)"/>
<path d="M20.081 126.332L19.4465 123.23C20.1995 123.217 20.8735 123.754 21.0399 124.493C21.2035 125.274 20.7909 125.995 20.0838 126.289L20.081 126.332Z" fill="url(#paint16_radial_326_4379)"/>
<path d="M19.4463 126.483L19.4775 126.335L18.9118 123.495L18.8118 123.381L19.4463 126.483Z" fill="#2C2E32"/>
<path d="M20.0814 126.332L20.0014 126.241L19.4129 123.421L19.4441 123.273L20.0814 126.332Z" fill="#5D636C"/>
<path d="M31.3329 125.511C31.6282 126.579 32.7275 127.188 33.7799 126.874C34.8522 126.583 35.4613 125.49 35.1432 124.441C34.8479 123.373 33.7487 122.764 32.6763 123.055C31.6039 123.347 30.9948 124.44 31.2901 125.508L31.3329 125.511Z" fill="url(#paint17_linear_326_4379)"/>
<path style="mix-blend-mode:multiply" d="M31.3339 125.511C31.6292 126.579 32.7284 127.188 33.7808 126.874C34.8532 126.583 35.4623 125.49 35.1442 124.441C34.8489 123.373 33.7496 122.764 32.6973 123.078C31.6249 123.37 31.0158 124.462 31.3339 125.511ZM31.8159 125.372C31.6094 124.588 32.0705 123.785 32.8377 123.558C33.6249 123.355 34.4329 123.816 34.6622 124.58C34.8687 125.364 34.4076 126.168 33.6404 126.394C32.8532 126.598 32.0451 126.137 31.8159 125.372Z" fill="url(#paint18_radial_326_4379)"/>
<path d="M34.6751 125.373C34.8994 124.575 34.4362 123.773 33.6541 123.571C32.8521 123.345 32.0481 123.805 31.8466 124.583C31.6223 125.381 32.0856 126.182 32.8676 126.385C33.6696 126.61 34.4736 126.151 34.6951 125.395L34.6751 125.373Z" fill="url(#paint19_radial_326_4379)"/>
<path d="M32.5221 126.405C31.8568 126.061 31.4991 125.288 31.6778 124.529C31.8994 123.774 32.6179 123.309 33.3656 123.381L32.4993 126.425L32.5221 126.405Z" fill="url(#paint20_radial_326_4379)"/>
<path d="M33.1118 126.572L33.9553 123.547C34.6206 123.892 34.9784 124.665 34.7796 125.4C34.558 126.156 33.8396 126.621 33.0918 126.549L33.1118 126.572Z" fill="url(#paint21_radial_326_4379)"/>
<path d="M32.5215 126.405L32.6155 126.283L33.3995 123.51L33.3879 123.36L32.5215 126.405Z" fill="#2C2E32"/>
<path d="M33.1123 126.572L33.1007 126.422L33.8847 123.649L33.9987 123.55L33.1123 126.572Z" fill="#5D636C"/>
<defs>
<filter id="filter0_dddd_326_4379" x="12.7607" y="117.328" width="40.8174" height="47.418" filterUnits="userSpaceOnUse" color-interpolation-filters="sRGB">
<feFlood flood-opacity="0" result="BackgroundImageFix"/>
<feColorMatrix in="SourceAlpha" type="matrix" values="0 0 0 0 0 0 0 0 0 0 0 0 0 0 0 0 0 0 127 0" result="hardAlpha"/>
<feOffset dx="1"/>
<feGaussianBlur stdDeviation="1"/>
<feColorMatrix type="matrix" values="0 0 0 0 0.556863 0 0 0 0 0.564706 0 0 0 0 0.764706 0 0 0 0.1 0"/>
<feBlend mode="normal" in2="BackgroundImageFix" result="effect1_dropShadow_326_4379"/>
<feColorMatrix in="SourceAlpha" type="matrix" values="0 0 0 0 0 0 0 0 0 0 0 0 0 0 0 0 0 0 127 0" result="hardAlpha"/>
<feOffset dx="2" dy="2"/>
<feGaussianBlur stdDeviation="1.5"/>
<feColorMatrix type="matrix" values="0 0 0 0 0.556863 0 0 0 0 0.564706 0 0 0 0 0.764706 0 0 0 0.09 0"/>
<feBlend mode="normal" in2="effect1_dropShadow_326_4379" result="effect2_dropShadow_326_4379"/>
<feColorMatrix in="SourceAlpha" type="matrix" values="0 0 0 0 0 0 0 0 0 0 0 0 0 0 0 0 0 0 127 0" result="hardAlpha"/>
<feOffset dx="6" dy="4"/>
<feGaussianBlur stdDeviation="2"/>
<feColorMatrix type="matrix" values="0 0 0 0 0.556863 0 0 0 0 0.564706 0 0 0 0 0.764706 0 0 0 0.05 0"/>
<feBlend mode="normal" in2="effect2_dropShadow_326_4379" result="effect3_dropShadow_326_4379"/>
<feColorMatrix in="SourceAlpha" type="matrix" values="0 0 0 0 0 0 0 0 0 0 0 0 0 0 0 0 0 0 127 0" result="hardAlpha"/>
<feOffset dx="10" dy="7"/>
<feGaussianBlur stdDeviation="2.5"/>
<feColorMatrix type="matrix" values="0 0 0 0 0.556863 0 0 0 0 0.564706 0 0 0 0 0.764706 0 0 0 0.01 0"/>
<feBlend mode="normal" in2="effect3_dropShadow_326_4379" result="effect4_dropShadow_326_4379"/>
<feBlend mode="normal" in="SourceGraphic" in2="effect4_dropShadow_326_4379" result="shape"/>
</filter>
<linearGradient id="paint0_linear_326_4379" x1="72.4203" y1="323" x2="72.4203" y2="136.127" gradientUnits="userSpaceOnUse">
<stop stop-color="#1C1C21" stop-opacity="0"/>
<stop offset="0.693196" stop-color="#1C1C21"/>
</linearGradient>
<linearGradient id="paint1_linear_326_4379" x1="165.473" y1="8.09806e-06" x2="165.473" y2="210.232" gradientUnits="userSpaceOnUse">
<stop stop-color="#1C1C21" stop-opacity="0"/>
<stop offset="0.693196" stop-color="#1C1C21"/>
</linearGradient>
<linearGradient id="paint2_linear_326_4379" x1="17.3929" y1="146.501" x2="21.2196" y2="147.564" gradientUnits="userSpaceOnUse">
<stop stop-color="#646A73"/>
<stop offset="1" stop-color="#BDC8D9"/>
</linearGradient>
<radialGradient id="paint3_radial_326_4379" cx="0" cy="0" r="1" gradientTransform="matrix(-1.63671 -1.09796 1.09889 -1.62689 19.3023 147.121)" gradientUnits="userSpaceOnUse">
<stop offset="0.83" stop-color="#1D1E21"/>
<stop offset="0.86" stop-color="#3C3F44"/>
<stop offset="0.9" stop-color="#565B63"/>
<stop offset="0.94" stop-color="#6A707A"/>
<stop offset="0.97" stop-color="#767C87"/>
<stop offset="1" stop-color="#7A818C"/>
</radialGradient>
<radialGradient id="paint4_radial_326_4379" cx="0" cy="0" r="1" gradientTransform="matrix(1.4861 -0.00349188 -0.0070666 -1.47958 19.2508 147.114)" gradientUnits="userSpaceOnUse">
<stop offset="0.56" stop-color="#383B40"/>
<stop offset="0.81" stop-color="#36393E"/>
<stop offset="0.9" stop-color="#303237"/>
<stop offset="0.96" stop-color="#26272B"/>
<stop offset="1" stop-color="#1D1E21"/>
</radialGradient>
<radialGradient id="paint5_radial_326_4379" cx="0" cy="0" r="1" gradientTransform="matrix(2.63846 -0.00619946 -0.0125465 -2.62688 18.3727 147.66)" gradientUnits="userSpaceOnUse">
<stop stop-color="#7A818C"/>
<stop offset="1" stop-color="#202225"/>
</radialGradient>
<radialGradient id="paint6_radial_326_4379" cx="0" cy="0" r="1" gradientTransform="matrix(2.57783 -0.00606121 -0.0122538 -2.56652 18.5855 147.658)" gradientUnits="userSpaceOnUse">
<stop stop-color="#7A818C"/>
<stop offset="1" stop-color="#202225"/>
</radialGradient>
<linearGradient id="paint7_linear_326_4379" x1="31.5335" y1="145.793" x2="34.5226" y2="148.433" gradientUnits="userSpaceOnUse">
<stop stop-color="#646A73"/>
<stop offset="1" stop-color="#BDC8D9"/>
</linearGradient>
<radialGradient id="paint8_radial_326_4379" cx="0" cy="0" r="1" gradientTransform="matrix(-1.63671 -1.09796 1.09889 -1.62689 33.0911 147.222)" gradientUnits="userSpaceOnUse">
<stop offset="0.83" stop-color="#1D1E21"/>
<stop offset="0.86" stop-color="#3C3F44"/>
<stop offset="0.9" stop-color="#565B63"/>
<stop offset="0.94" stop-color="#6A707A"/>
<stop offset="0.97" stop-color="#767C87"/>
<stop offset="1" stop-color="#7A818C"/>
</radialGradient>
<radialGradient id="paint9_radial_326_4379" cx="0" cy="0" r="1" gradientTransform="matrix(1.33711 0.648952 0.64862 -1.32968 33.0172 147.188)" gradientUnits="userSpaceOnUse">
<stop offset="0.56" stop-color="#383B40"/>
<stop offset="0.81" stop-color="#36393E"/>
<stop offset="0.9" stop-color="#303237"/>
<stop offset="0.96" stop-color="#26272B"/>
<stop offset="1" stop-color="#1D1E21"/>
</radialGradient>
<radialGradient id="paint10_radial_326_4379" cx="0" cy="0" r="1" gradientTransform="matrix(2.37467 1.15253 1.15193 -2.36148 31.9613 147.28)" gradientUnits="userSpaceOnUse">
<stop stop-color="#7A818C"/>
<stop offset="1" stop-color="#202225"/>
</radialGradient>
<radialGradient id="paint11_radial_326_4379" cx="0" cy="0" r="1" gradientTransform="matrix(2.3201 1.12604 1.12546 -2.30722 32.1774 147.384)" gradientUnits="userSpaceOnUse">
<stop stop-color="#7A818C"/>
<stop offset="1" stop-color="#202225"/>
</radialGradient>
<linearGradient id="paint12_linear_326_4379" x1="17.4518" y1="124.756" x2="21.4555" y2="125.04" gradientUnits="userSpaceOnUse">
<stop stop-color="#646A73"/>
<stop offset="1" stop-color="#BDC8D9"/>
</linearGradient>
<radialGradient id="paint13_radial_326_4379" cx="0" cy="0" r="1" gradientTransform="matrix(-1.63671 -1.09795 1.0989 -1.62688 19.4828 124.853)" gradientUnits="userSpaceOnUse">
<stop offset="0.83" stop-color="#1D1E21"/>
<stop offset="0.86" stop-color="#3C3F44"/>
<stop offset="0.9" stop-color="#565B63"/>
<stop offset="0.94" stop-color="#6A707A"/>
<stop offset="0.97" stop-color="#767C87"/>
<stop offset="1" stop-color="#7A818C"/>
</radialGradient>
<radialGradient id="paint14_radial_326_4379" cx="0" cy="0" r="1" gradientTransform="matrix(1.45555 -0.295115 -0.299905 -1.44986 19.5022 124.805)" gradientUnits="userSpaceOnUse">
<stop offset="0.56" stop-color="#383B40"/>
<stop offset="0.81" stop-color="#36393E"/>
<stop offset="0.9" stop-color="#303237"/>
<stop offset="0.96" stop-color="#26272B"/>
<stop offset="1" stop-color="#1D1E21"/>
</radialGradient>
<radialGradient id="paint15_radial_326_4379" cx="0" cy="0" r="1" gradientTransform="matrix(2.58384 -0.523883 -0.532376 -2.57374 18.7214 125.519)" gradientUnits="userSpaceOnUse">
<stop stop-color="#7A818C"/>
<stop offset="1" stop-color="#202225"/>
</radialGradient>
<radialGradient id="paint16_radial_326_4379" cx="0" cy="0" r="1" gradientTransform="matrix(2.52447 -0.511844 -0.520144 -2.5146 18.9299 125.475)" gradientUnits="userSpaceOnUse">
<stop stop-color="#7A818C"/>
<stop offset="1" stop-color="#202225"/>
</radialGradient>
<linearGradient id="paint17_linear_326_4379" x1="31.4127" y1="123.989" x2="34.8274" y2="126.097" gradientUnits="userSpaceOnUse">
<stop stop-color="#646A73"/>
<stop offset="1" stop-color="#BDC8D9"/>
</linearGradient>
<radialGradient id="paint18_radial_326_4379" cx="0" cy="0" r="1" gradientTransform="matrix(-1.63671 -1.09796 1.09889 -1.62688 33.2704 124.955)" gradientUnits="userSpaceOnUse">
<stop offset="0.83" stop-color="#1D1E21"/>
<stop offset="0.86" stop-color="#3C3F44"/>
<stop offset="0.9" stop-color="#565B63"/>
<stop offset="0.94" stop-color="#6A707A"/>
<stop offset="0.97" stop-color="#767C87"/>
<stop offset="1" stop-color="#7A818C"/>
</radialGradient>
<radialGradient id="paint19_radial_326_4379" cx="0" cy="0" r="1" gradientTransform="matrix(1.42964 0.40745 0.405831 -1.42238 33.3029 124.908)" gradientUnits="userSpaceOnUse">
<stop offset="0.56" stop-color="#383B40"/>
<stop offset="0.81" stop-color="#36393E"/>
<stop offset="0.9" stop-color="#303237"/>
<stop offset="0.96" stop-color="#26272B"/>
<stop offset="1" stop-color="#1D1E21"/>
</radialGradient>
<radialGradient id="paint20_radial_326_4379" cx="0" cy="0" r="1" gradientTransform="matrix(2.53869 0.723531 0.72066 -2.5258 32.2782 125.182)" gradientUnits="userSpaceOnUse">
<stop stop-color="#7A818C"/>
<stop offset="1" stop-color="#202225"/>
</radialGradient>
<radialGradient id="paint21_radial_326_4379" cx="0" cy="0" r="1" gradientTransform="matrix(2.48036 0.706905 0.704099 -2.46776 32.4813 125.239)" gradientUnits="userSpaceOnUse">
<stop stop-color="#7A818C"/>
<stop offset="1" stop-color="#202225"/>
</radialGradient>
</defs>
</svg>
